<?xml version="1.0" encoding="utf-8"?>
<!-- Generator: Adobe Illustrator 15.1.0, SVG Export Plug-In . SVG Version: 6.00 Build 0)  -->
<!DOCTYPE svg PUBLIC "-//W3C//DTD SVG 1.1//EN" "http://www.w3.org/Graphics/SVG/1.1/DTD/svg11.dtd">
<svg version="1.1" id="icon-047-s" xmlns="http://www.w3.org/2000/svg" xmlns:xlink="http://www.w3.org/1999/xlink" x="0px" y="0px"
	 width="2048px" height="2048px" viewBox="0 0 2048 2048" enable-background="new 0 0 2048 2048" xml:space="preserve">
<path d="M749.981,1407.636c-60.729,0-109.981-49.209-109.981-109.971c0-60.736,49.253-109.957,109.981-109.957
	c60.704,0,109.977,49.221,109.977,109.957C859.958,1358.427,810.686,1407.636,749.981,1407.636z M1025.777,1407.835
	c-1.029-102.308-40.986-198.228-112.941-270.543c-72.807-73.163-169.656-113.423-272.702-113.423V865.08
	c298.904,0,542.249,243.11,544.419,542.755H1025.777z M1306.252,1407.835c-2.258-367.292-300.078-665.438-665.895-665.438V583.634
	c453.395,0,822.398,369.343,824.68,824.201H1306.252z"/>
</svg>
