<?xml version="1.0" encoding="utf-8"?>
<!-- Generator: Adobe Illustrator 15.1.0, SVG Export Plug-In . SVG Version: 6.00 Build 0)  -->
<!DOCTYPE svg PUBLIC "-//W3C//DTD SVG 1.1//EN" "http://www.w3.org/Graphics/SVG/1.1/DTD/svg11.dtd">
<svg version="1.1" id="icon-029" xmlns="http://www.w3.org/2000/svg" xmlns:xlink="http://www.w3.org/1999/xlink" x="0px" y="0px"
	 width="2048px" height="2048px" viewBox="0 0 2048 2048" enable-background="new 0 0 2048 2048" xml:space="preserve">
<g>
	<path d="M1595.285,737.395c-31.541-59.057-73.188-113.986-122.816-161.842V132.071l-423.033,246.768
		c-30.697-3.645-61.861-5.488-92.932-5.488c-94.938,0-187.123,16.767-273.99,49.835c-84.263,32.078-160.038,78.081-225.206,136.735
		c-65.657,59.091-117.283,128.066-153.444,205.011c-37.696,80.211-56.808,165.459-56.808,253.373
		c0,102.019,26.858,203.614,77.671,293.802c41.597,73.831,99.428,140.514,168.718,194.896l-70.895,285.249h455.392l32.395-130.346
		c15.377,0.903,30.795,1.355,46.168,1.355l0.004,128.99h451.467l-0.002-276.316c79.217-59.383,142.951-133.156,187.379-216.693
		l199.594,41.542V695.829L1595.285,737.395z M1665.953,1186.806l-141.207-47.069l-22.92,55.671
		c-38.217,92.828-105.463,173.698-194.471,233.869l-28.375,19.183v215.564h-193.486v-138.642l-70.23,6.271
		c-19.443,1.734-39.213,2.617-58.76,2.617c-29.043,0-58.256-1.934-86.832-5.747l-57.203-7.631l-35.385,142.368H587.522
		l52.333-210.566l-36.969-25.305c-69.375-47.48-126.701-109.243-165.778-178.601c-40.518-71.913-61.062-149.459-61.062-230.484
		c0-284.504,260.392-515.964,580.458-515.964c32.477,0,65.047,2.404,96.801,7.144l22.426,3.348l267.746-156.184v276.239
		l21.826,19.257c60.299,53.202,107.51,118.578,136.523,189.059l22.92,55.673l141.207-47.068V1186.806z"/>
	<path d="M1287.562,760.107c-35.752,0-64.74,28.986-64.74,64.743s28.988,64.743,64.74,64.743c35.76,0,64.746-28.986,64.746-64.743
		S1323.322,760.107,1287.562,760.107z"/>
	<path d="M567.574,822.246l46.465,46.685c15.762-24.866,35.513-48.184,58.994-69.315c74.365-66.93,175.037-103.788,283.471-103.788
		v-64.494c-124.395,0-240.389,42.737-326.615,120.345C605.795,773.359,584.969,797.047,567.574,822.246z"/>
</g>
</svg>
