<?xml version="1.0" encoding="utf-8"?>
<!-- Generator: Adobe Illustrator 15.1.0, SVG Export Plug-In . SVG Version: 6.00 Build 0)  -->
<!DOCTYPE svg PUBLIC "-//W3C//DTD SVG 1.1//EN" "http://www.w3.org/Graphics/SVG/1.1/DTD/svg11.dtd">
<svg version="1.1" id="icon-074" xmlns="http://www.w3.org/2000/svg" xmlns:xlink="http://www.w3.org/1999/xlink" x="0px" y="0px"
	 width="2048px" height="2048px" viewBox="0 0 2048 2048" enable-background="new 0 0 2048 2048" xml:space="preserve">
<path d="M1792,1216V832h-226.195c-6.73-18.896-14.42-37.338-23.014-55.264l160.031-160.03l-271.529-271.529l-160.381,160.381
	c-17.818-8.485-36.141-16.085-54.912-22.733V256H832v226.825c-19.011,6.732-37.561,14.439-55.592,23.055L617.706,347.178
	L346.177,618.707l158.708,158.709c-8.462,17.713-16.044,35.926-22.69,54.584H256v384h225.49
	c6.731,19.116,14.452,37.765,23.085,55.896l-159.398,159.397l271.528,271.529l159.048-159.047
	c18.237,8.742,37.007,16.552,56.247,23.366V1792h384v-224.858c19.002-6.729,37.543-14.433,55.566-23.044l160.727,160.726
	l271.529-271.529l-160.721-160.72c8.766-18.343,16.594-37.22,23.408-56.574H1792z M1024,1284c-143.594,0-260-116.406-260-260
	s116.406-260,260-260s260,116.406,260,260S1167.594,1284,1024,1284z"/>
</svg>
