<?xml version="1.0" encoding="utf-8"?>
<!-- Generator: Adobe Illustrator 15.1.0, SVG Export Plug-In . SVG Version: 6.00 Build 0)  -->
<!DOCTYPE svg PUBLIC "-//W3C//DTD SVG 1.1//EN" "http://www.w3.org/Graphics/SVG/1.1/DTD/svg11.dtd">
<svg version="1.1" id="icon-053" xmlns="http://www.w3.org/2000/svg" xmlns:xlink="http://www.w3.org/1999/xlink" x="0px" y="0px"
	 width="2048px" height="2048px" viewBox="0 0 2048 2048" enable-background="new 0 0 2048 2048" xml:space="preserve">
<path d="M1689.01,227.506c-78.396-48.781-229.971,111.508-252.615,137.637c-19.66,22.691-135.062,159.481-165.221,195.243
	c27.246,17.792,44.996,37.879,44.996,37.879c-26.211-19.123-70.225-45.842-182.924-64.118
	c-148.768-24.13-213.254,12.433-239.876,21.691c0,0,37.055-27.315,76.071-36.089c-15.216-34.431-82.623-187.884-102.762-231.261
	c-22.646-48.78-111.504-175.966-195.131-158.542c-83.625,17.424-165.511,278.756-168.993,334.515
	c-3.494,55.75,1.736,271.78-26.14,402.457c-19.098,89.54-25.293,197.282-11.213,285.463c3.269,20.331,45.464,166.964,65.601,228.203
	c0,0-32.421-46.84-53.256-89.312c-91.915,100.381-123.545,220.643-149.224,265.563c-27.874,48.785-167.247,210.816-270.04,273.539
	C0.006,1865.927-4.508,1965.87,2.507,2047.999h1471.097c6.471-54.42,24.084-191.277,25.502-297.779
	c1.416-106.137-49.07-224.961-67.648-268.882c-33.738,14.062-70.291,22.022-70.291,22.022
	c38.775-15.839,77.512-36.75,119.701-75.791c44.662-41.341,82.709-126.843,105.354-193.048
	c22.648-66.205,64.465-287.464,67.951-313.603c3.482-26.14,67.947-196.879,83.623-282.237
	C1753.48,553.312,1767.416,276.297,1689.01,227.506z M931.141,1085.562c0,0-72.301,27.872-130.664-6.095
	c-58.369-33.971-33.977-96.693-33.977-96.693s47.045-44.427,116.732-11.323C952.918,1004.552,931.141,1085.562,931.141,1085.562z
	 M1336.207,1136.952c-76.658,12.199-99.305-32.225-99.305-32.225s7.842-76.661,76.658-90.599
	c68.818-13.936,94.078,32.235,94.078,32.235S1412.869,1124.759,1336.207,1136.952z"/>
</svg>
