<?xml version="1.0" encoding="utf-8"?>
<!-- Generator: Adobe Illustrator 15.1.0, SVG Export Plug-In . SVG Version: 6.00 Build 0)  -->
<!DOCTYPE svg PUBLIC "-//W3C//DTD SVG 1.1//EN" "http://www.w3.org/Graphics/SVG/1.1/DTD/svg11.dtd">
<svg version="1.1" id="icon-021" xmlns="http://www.w3.org/2000/svg" xmlns:xlink="http://www.w3.org/1999/xlink" x="0px" y="0px"
	 width="2048px" height="2048px" viewBox="0 0 2048 2048" enable-background="new 0 0 2048 2048" xml:space="preserve">
<g>
	<path d="M1651.832,1462.139l-295.602-174.172c-15.379-7.856-37.914-4.273-50.113,7.922l-86.967,86.97
		c-12.164,12.18-36.271,22.316-53.51,22.518c0,0-111.131,1.277-317.773-205.381C641.215,993.349,642.201,881.854,642.201,881.854
		c0.164-17.24,10.264-41.328,22.44-53.491l74.143-74.13c12.198-12.218,16.291-34.99,9.091-50.677L584.819,396.867
		c-7.195-15.67-23.065-18.518-35.249-6.356l-202.213,201.73c-12.201,12.146-24.05,36.106-26.343,53.202
		c0,0-39.449,294.761,373.583,707.791c413.041,413.034,707.805,373.586,707.805,373.586c17.072-2.299,41.037-14.135,53.213-26.318
		l201.969-201.969C1669.768,1486.356,1667.172,1469.953,1651.832,1462.139z"/>
	<path d="M960.012,919.691c38.718,9.678,75.426,29.41,105.701,59.679c30.449,30.454,50.23,67.434,59.857,106.4h73.781
		c-7.658-60.379-34.648-116.188-78.123-159.86c-43.998-44.225-100.33-71.463-161.217-78.756V919.691z"/>
	<path d="M1513.283,1085.788l86.738-0.018c-6.316-330.888-308.971-632.91-640-637.936l-0.022,84.812
		C1256.846,549.13,1495.48,788.011,1513.283,1085.788z"/>
	<path d="M1312.977,1085.771l86.922,0.018C1382.471,850.432,1194.451,662.189,960.012,646v87.587
		C1146.721,749.432,1296.012,898.657,1312.977,1085.771z"/>
</g>
</svg>
