<?xml version="1.0" encoding="utf-8"?>
<!-- Generator: Adobe Illustrator 15.1.0, SVG Export Plug-In . SVG Version: 6.00 Build 0)  -->
<!DOCTYPE svg PUBLIC "-//W3C//DTD SVG 1.1//EN" "http://www.w3.org/Graphics/SVG/1.1/DTD/svg11.dtd">
<svg version="1.1" id="icon-083-s" xmlns="http://www.w3.org/2000/svg" xmlns:xlink="http://www.w3.org/1999/xlink" x="0px" y="0px"
	 width="2048px" height="2048px" viewBox="0 0 2048 2048" enable-background="new 0 0 2048 2048" xml:space="preserve">
<g>
	<path fill="#020101" d="M1376.023,512C1147.67,523.976,964.584,706.748,952.09,934.964
		C1180.439,922.99,1363.531,740.215,1376.023,512z"/>
	<path fill="#020101" d="M952.09,984.776c12.494,228.202,195.584,410.979,423.934,422.953
		C1363.531,1179.515,1180.439,996.75,952.09,984.776z"/>
	<path fill="#020101" d="M853.193,512H746.368c-24.282,0-44.149,19.868-44.149,44.152v802.792c0,44.159,0,44.159,44.149,44.159
		h106.825c24.282,0,44.152-19.87,44.152-44.159V556.152C897.346,512,897.346,512,853.193,512z"/>
</g>
</svg>
