<?xml version="1.0" encoding="utf-8"?>
<!-- Generator: Adobe Illustrator 15.1.0, SVG Export Plug-In . SVG Version: 6.00 Build 0)  -->
<!DOCTYPE svg PUBLIC "-//W3C//DTD SVG 1.1//EN" "http://www.w3.org/Graphics/SVG/1.1/DTD/svg11.dtd">
<svg version="1.1" id="icon-076" xmlns="http://www.w3.org/2000/svg" xmlns:xlink="http://www.w3.org/1999/xlink" x="0px" y="0px"
	 width="2048px" height="2048px" viewBox="0 0 2048 2048" enable-background="new 0 0 2048 2048" xml:space="preserve">
<g>
	<path d="M1024,256c-424.154,0-768,343.846-768,768s343.846,768,768,768c424.156,0,768-343.846,768-768S1448.156,256,1024,256z
		 M1024,1728c-388.807,0-704-315.192-704-704c0-388.809,315.193-704,704-704c388.809,0,704,315.191,704,704
		C1728,1412.808,1412.809,1728,1024,1728z"/>
	<ellipse cx="797.98" cy="765.787" rx="96" ry="128"/>
	<ellipse cx="1247.98" cy="765.787" rx="96" ry="128"/>
	<g>
		<g>
			<path d="M783.639,752.603c0.796,0,2.029-1.207,0.723-1.207C783.565,751.396,782.332,752.603,783.639,752.603L783.639,752.603z"/>
		</g>
	</g>
	<path d="M687.068,1408.074c89.664-79.528,207.652-127.83,336.932-127.83c129.277,0,247.268,48.302,336.93,127.83h93.117
		c-105.164-118.877-258.85-193.83-430.047-193.83c-171.199,0-324.883,74.953-430.046,193.83H687.068z"/>
</g>
</svg>
