<?xml version="1.0" encoding="utf-8"?>
<!-- Generator: Adobe Illustrator 15.1.0, SVG Export Plug-In . SVG Version: 6.00 Build 0)  -->
<!DOCTYPE svg PUBLIC "-//W3C//DTD SVG 1.1//EN" "http://www.w3.org/Graphics/SVG/1.1/DTD/svg11.dtd">
<svg version="1.1" id="icon-054-s" xmlns="http://www.w3.org/2000/svg" xmlns:xlink="http://www.w3.org/1999/xlink" x="0px" y="0px"
	 width="2048px" height="2048px" viewBox="0 0 2048 2048" enable-background="new 0 0 2048 2048" xml:space="preserve">
<path d="M1001.146,1300.732c0,0,87.24,113.265,94.408,169.048c1.867,14.507,9.562,38.569,19.92,66.22H1536v-465.589
	c-60.16-47.727-116.586-91.439-128.918-100.989c-24.701-19.115-136.242-176.871-165.723-208.742
	c-29.479-31.867-67.719-117.117-78.08-144.212c-10.355-27.083-20.713-29.475-29.479-21.511c-5.77,5.242-9.465,32.217-11.32,50.049
	c-0.127,1.304-4.867,49.779,0.008,109.48c0,0-19.133-134.346-24.488-147.487c-8.762-21.515-11.207-39.783-22.701-27.976
	c-11.492,11.812-24.5,67.467-25.299,88.976c-0.793,21.519,9.852,100.522,1,122c-15.574,37.771-60.854,72.128-100.361,105.663
	c-43.367,36.808-51.639,95.872-85.08,122.572c-56.262,44.916-218.561,129.657-234.496,136.027
	c-15.934,6.379-30.277,18.332-29.479,37.452c0.797,19.121,40.632,47.007,40.632,47.007c17.53,31.079,40.636,49.391,110.743,68.516
	c112.146,30.604,204.193-2.488,216.357-6.913C981.48,1295.897,1010.361,1298.525,1001.146,1300.732z M978.31,1007.292
	c0,0,76.128,47.313,85.831,48.775c0,0-28.432,24.012-60.502,28.915C1003.639,1084.982,955.769,1081.092,978.31,1007.292z"/>
</svg>
