<?xml version="1.0" encoding="utf-8"?>
<!-- Generator: Adobe Illustrator 15.1.0, SVG Export Plug-In . SVG Version: 6.00 Build 0)  -->
<!DOCTYPE svg PUBLIC "-//W3C//DTD SVG 1.1//EN" "http://www.w3.org/Graphics/SVG/1.1/DTD/svg11.dtd">
<svg version="1.1" id="icon-031-s" xmlns="http://www.w3.org/2000/svg" xmlns:xlink="http://www.w3.org/1999/xlink" x="0px" y="0px"
	 width="2048px" height="2048px" viewBox="0 0 2048 2048" enable-background="new 0 0 2048 2048" xml:space="preserve">
<g>
	<path d="M1440.229,830.156c-7.943-12.832-17.602-24.052-28.025-34.392c0.869,9.867,1.438,19.857,1.416,30.11
		c0.062,49.492-9.605,98.195-28.695,144.698c-19.111,46.589-43.859,85.426-73.596,115.446c-29.092,29.313-61.424,52.127-96.299,67.9
		c-33.127,14.856-72.217,25.109-123.178,32.269c-29.66,4.081-73.213,5.858-145.615,5.894h-15.801l-41.676,199.296l-5.496,26.099
		l-10.985,52.142h-53.292h-80.721l-12.224,66.217h217.015l5.5-33.962l52.572-251.411h69.18c65.281-0.047,109.475-1.536,136.668-5.26
		c42.297-5.935,76.996-14.471,105.246-27.153c27.811-12.574,53.414-30.906,76.547-54.226c24.488-24.708,43.961-56.357,59.438-94.1
		c15.822-38.512,23.842-78.685,23.791-119.679C1472.098,905.49,1461.822,864.609,1440.229,830.156z"/>
	<path d="M1086.771,575.835H764.186L598.03,1369.351h217.015l5.512-26.112l52.572-251.406h69.166
		c65.295-0.038,109.479-1.538,136.656-5.275c42.297-5.947,77.023-14.457,105.248-27.145c27.82-12.583,53.439-30.927,76.574-54.234
		c24.471-24.723,43.959-56.37,59.42-94.098c15.826-38.512,23.855-78.688,23.805-119.681c0.088-44.542-10.201-85.448-31.797-119.888
		c-21.047-34.043-51.479-59.884-88.242-74.629C1187.225,582.102,1141.951,575.923,1086.771,575.835z M942.107,761.205h80.621
		c2.285-0.025,4.533-0.039,6.727-0.039c37.732,0,64.711,2.794,73.486,4.904c1.252,0.295,2.123,0.584,2.619,0.844
		c8.613,3.252,13.129,6.949,17.004,12.361c3.102,4.604,5.758,11.717,5.809,24.523c-0.088,19.76-5.312,36.338-16.904,53.217
		c-11.543,16.309-26.152,27.729-47.162,35.707c-2.098,0.856-4.717,1.701-7.832,2.521c-21.807,5.707-68.074,10.25-132.586,10.25
		c-2.121,0-4.244,0-6.402,0h-5.736L942.107,761.205z"/>
</g>
</svg>
