<?xml version="1.0" encoding="utf-8"?>
<!-- Generator: Adobe Illustrator 15.1.0, SVG Export Plug-In . SVG Version: 6.00 Build 0)  -->
<!DOCTYPE svg PUBLIC "-//W3C//DTD SVG 1.1//EN" "http://www.w3.org/Graphics/SVG/1.1/DTD/svg11.dtd">
<svg version="1.1" id="icon-036" xmlns="http://www.w3.org/2000/svg" xmlns:xlink="http://www.w3.org/1999/xlink" x="0px" y="0px"
	 width="2048px" height="2048px" viewBox="0 0 2048 2048" enable-background="new 0 0 2048 2048" xml:space="preserve">
<path d="M1605.43,1383.921c-96.947-16.967-221.779-137.848-412.469-182.014V1162.2c40.494-55.946,73.898-131.808,108.08-218.872
	c24.08-61.267,19.945-113.498,19.945-187.871c0-54.938,10.357-143.1-3.283-191.56C1271.719,400.148,1160.135,320,1024,320
	c-136.256,0-257.255,80.362-303.158,244.387c-13.512,48.312-3.154,136.281-3.154,191.07c0,74.544-4.049,126.945,20.074,188.318
	c37.141,94.309,72.646,175.087,117.279,231.805v23.9c-196.884,41.969-324.631,167.151-423.424,184.44
	c-196.099,34.319-196.099,182.27-196.099,182.27L192,1727.835h1664l-43.52-165.22
	C1812.48,1562.615,1801.529,1418.24,1605.43,1383.921z"/>
</svg>
