<?xml version="1.0" encoding="utf-8"?>
<!-- Generator: Adobe Illustrator 15.1.0, SVG Export Plug-In . SVG Version: 6.00 Build 0)  -->
<!DOCTYPE svg PUBLIC "-//W3C//DTD SVG 1.1//EN" "http://www.w3.org/Graphics/SVG/1.1/DTD/svg11.dtd">
<svg version="1.1" id="icon-056" xmlns="http://www.w3.org/2000/svg" xmlns:xlink="http://www.w3.org/1999/xlink" x="0px" y="0px"
	 width="2048px" height="2048px" viewBox="0 0 2048 2048" enable-background="new 0 0 2048 2048" xml:space="preserve">
<path d="M398.431,1468.134c0,0-35.498-213.045-39.685-252.734c-4.181-39.679,39.685-60.568,39.685-60.568
	s71.012-4.176,81.458-35.516c10.45-31.328,56.398-58.469,56.398-58.469s-27.152,100.247-85.633,114.874
	c-58.491,14.614-73.106,39.679-73.106,39.679s35.514,93.996,131.587,127.411c56.786,19.756,108.443,20.531,141.214,17.871
	c0,0,15.974-1.766,39.261-6.538c5.375-2.11,10.486-3.197,15.342-3.363c18.934-4.427,70.734-20.186,94.246-33.894
	c0,0-39.291,37.306-57.131,51.274c22.261,17.132,30.492,44.081,44.881,62.394c22.978,29.241,156.652,210.956,181.716,261.087
	c25.065,50.13,231.849,340.455,231.849,340.455s13.078,5.918,35.262,15.903H2048V908.729
	c-78.846-51.406-220.857-137.219-252.199-161.197c-35.512-27.141-96.088-152.477-133.688-227.66
	c-37.592-75.192-181.717-142.036-181.717-142.036c41.768,2.087,56.393-16.714,56.393-16.714
	c-83.549-8.363-139.949-121.148-208.879-139.944c-68.92-18.795-146.203-16.707-146.203-16.707
	c14.629-6.264,37.605-64.744,37.605-64.744c-71.008,54.306-187.992,43.854-187.992,43.854c12.539-16.708,0-54.305,0-54.305
	c-64.734,62.668-173.367,60.574-173.367,60.574c-442.821,20.883-566.05,284.057-616.18,348.813
	c-40.275,52.026-21.962,102.955-10.796,126.697c44.988-23.896,93.053-22.537,93.053-22.537
	c-25.769,6.443-65.292,32.616-82.424,45.93c0.107,0.191,0.167,0.299,0.167,0.299S53.799,831.076,126.906,1100.526
	C200.006,1369.963,398.431,1468.134,398.431,1468.134z M849.602,463.479c56.523,0,102.341,45.823,102.341,102.335
	c0,56.523-45.817,102.346-102.341,102.346c-56.516,0-102.334-45.823-102.334-102.346
	C747.268,509.303,793.086,463.479,849.602,463.479z"/>
</svg>
