<?xml version="1.0" encoding="utf-8"?>
<!-- Generator: Adobe Illustrator 15.1.0, SVG Export Plug-In . SVG Version: 6.00 Build 0)  -->
<!DOCTYPE svg PUBLIC "-//W3C//DTD SVG 1.1//EN" "http://www.w3.org/Graphics/SVG/1.1/DTD/svg11.dtd">
<svg version="1.1" id="icon-044" xmlns="http://www.w3.org/2000/svg" xmlns:xlink="http://www.w3.org/1999/xlink" x="0px" y="0px"
	 width="2048px" height="2048px" viewBox="0 0 2048 2048" enable-background="new 0 0 2048 2048" xml:space="preserve">
<g>
	<path d="M1027,256.81c-424.711,0-769.025,344.292-769.025,769.025c0,424.711,344.314,769.024,769.025,769.024
		s769.025-344.313,769.025-769.024C1796.025,601.102,1451.711,256.81,1027,256.81z M1385.658,1096.593
		c-36.807,90.693-144.914,265.211-432.189,265.211c-388.028,0-514.656-285.922-514.656-285.922s128.722,63.43,282.872,39.249
		c-133.98-72.269-133.635-310.315-133.635-310.315c205.788,204.448,430.788,114.347,430.788,113.813
		c0-125.201,101.506-226.686,226.689-226.686c119.92,0,217.857,93.195,225.918,211.115l147.113,122.776L1385.658,1096.593z"/>
	<circle cx="1280" cy="895.835" r="64"/>
</g>
</svg>
