<?xml version="1.0" encoding="utf-8"?>
<!-- Generator: Adobe Illustrator 15.1.0, SVG Export Plug-In . SVG Version: 6.00 Build 0)  -->
<!DOCTYPE svg PUBLIC "-//W3C//DTD SVG 1.1//EN" "http://www.w3.org/Graphics/SVG/1.1/DTD/svg11.dtd">
<svg version="1.1" id="icon-042" xmlns="http://www.w3.org/2000/svg" xmlns:xlink="http://www.w3.org/1999/xlink" x="0px" y="0px"
	 width="2048px" height="2048px" viewBox="0 0 2048 2048" enable-background="new 0 0 2048 2048" xml:space="preserve">
<path d="M1057.002,319.835c-408.473,0-739.603,270.926-739.603,605.13c0,165.637,81.347,315.724,213.126,424.994l-78.652,314.606
	l300.71-187.943c92.842,34.35,195.901,53.472,304.418,53.472c408.469,0,739.604-270.927,739.604-605.129
	C1796.605,590.761,1465.471,319.835,1057.002,319.835z M1269.49,1245.465l-212.488-154.383l-212.49,154.383l81.164-249.797
	L713.188,841.285l262.65,0.002l81.164-249.798l81.16,249.798h262.652l-212.488,154.381L1269.49,1245.465z"/>
</svg>
