<?xml version="1.0" encoding="utf-8"?>
<!-- Generator: Adobe Illustrator 15.1.0, SVG Export Plug-In . SVG Version: 6.00 Build 0)  -->
<!DOCTYPE svg PUBLIC "-//W3C//DTD SVG 1.1//EN" "http://www.w3.org/Graphics/SVG/1.1/DTD/svg11.dtd">
<svg version="1.1" id="icon-052-s" xmlns="http://www.w3.org/2000/svg" xmlns:xlink="http://www.w3.org/1999/xlink" x="0px" y="0px"
	 width="2048px" height="2048px" viewBox="0 0 2048 2048" enable-background="new 0 0 2048 2048" xml:space="preserve">
<path d="M927.301,744.422c-0.424-0.467-0.84-0.932-1.289-1.424c-5.074-5.6-10.475-11.431-16.084-17.322
	c-0.078-0.076-0.123-0.122-0.123-0.122v-0.007c-46.803-49.156-108.146-102.576-119.031-62.67
	c-12.195,44.721,0.223,115.24,32.543,180.559c32.322,65.317,71.377,105.043,80.133,118.512c8.756,13.47,10.103,39.058,8.756,51.852
	c-0.75,7.083-5.832,17.664-11.592,25.824l0.008,0.006c0,0-1.756,3.028-5.822,7.083c-0.203,0.204-0.401,0.411-0.6,0.603l-12.5,0.949
	c-21.117-15.851-99.24-83.238-304.004-52.688c-24.178,3.605-46,9.248-65.696,16.623V1536h610.631
	c22.145-42.976,45.768-94.673,59.598-142.41c6.289-21.695,17.207-61.221,25.291-76.766l20.5-11.049h0.006
	c24.535-6.313,70.402-16.682,92.246-40.132c27.613-29.628,25.594-45.118,25.594-45.118s18.18-18.854,16.16-40.4
	c-2.023-21.547-16.834-39.055-16.834-39.055s6.064-102.355-75.42-177.101c-70.922-65.058-151.51-79.608-185.424-88.95h-0.006
	c0,0-0.049-0.015-0.061-0.016c-4.01-1.104-7.35-2.141-9.957-3.176l-2.873-8.502c-3.734-28.223-23.27-173.711-34.293-213.429
	c-12.195-43.94-41.239-95.928-63.428-62.646c-27.35,41.033-35.588,136.069-36.641,168.748L927.301,744.422z M1184.932,1048.558
	c53.117,13.281,47.586,69.718,45.371,78.566c0,0-97.375,32.09-116.189-61.968
	C1114.113,1065.156,1131.816,1035.278,1184.932,1048.558z"/>
</svg>
