<?xml version="1.0" encoding="utf-8"?>
<!-- Generator: Adobe Illustrator 15.1.0, SVG Export Plug-In . SVG Version: 6.00 Build 0)  -->
<!DOCTYPE svg PUBLIC "-//W3C//DTD SVG 1.1//EN" "http://www.w3.org/Graphics/SVG/1.1/DTD/svg11.dtd">
<svg version="1.1" id="icon-036" xmlns="http://www.w3.org/2000/svg" xmlns:xlink="http://www.w3.org/1999/xlink" x="0px" y="0px"
	 width="2048px" height="2048px" viewBox="0 0 2048 2048" enable-background="new 0 0 2048 2048" xml:space="preserve">
<g>
	<path d="M1856,1791.835H192c-19.91,0-38.687-9.267-50.798-25.069c-12.111-15.804-16.178-36.343-11.001-55.568l41.829-155.369
		c1.563-18.513,7.854-58.281,32.973-100.581c29.217-49.199,90.334-112.448,215.582-134.368
		c31.209-5.462,74.612-30.202,124.869-58.85c60.654-34.575,132.925-75.773,220.331-104.551
		c-30.73-52.275-58.15-115.547-87.571-190.252c-25.532-64.959-25.127-120.248-24.658-184.268c0.065-8.88,0.133-18.062,0.133-27.502
		c0-14.195-0.812-31.829-1.673-50.498c-2.449-53.157-5.227-113.407,7.192-157.81c12.938-46.232,31.636-88.309,55.578-125.072
		c23.483-36.06,52.03-67.083,84.847-92.209C862.75,281.543,940.335,256,1024,256c83.33,0,159.621,25.781,220.625,74.556
		c31.327,25.048,58.657,56.093,81.23,92.273c22.575,36.185,40.563,77.825,53.464,123.765c12.545,44.564,9.772,105.061,7.327,158.437
		c-0.854,18.637-1.66,36.24-1.66,50.426c0,9.578,0.071,18.888,0.141,27.892c0.486,63.689,0.906,118.694-24.521,183.391
		c-25.889,65.941-54.324,133.615-88.415,191.043c87.071,28.802,159.186,69.913,219.411,104.245
		c50.254,28.648,93.655,53.391,124.861,58.852c123.449,21.604,187.275,82.326,219.081,129.461
		c29.329,43.463,37.657,83.382,39.977,100.342l42.368,160.852c5.057,19.194,0.92,39.648-11.197,55.37
		C1894.575,1782.625,1875.849,1791.835,1856,1791.835z M275.509,1663.835h1497.45l-22.367-84.918
		c-1.145-4.344-1.701-6.561-1.902-10.847c-0.576-3.83-4.634-26.538-22.552-50.812c-26.572-35.996-70.896-59.646-131.741-70.295
		c-53.165-9.305-105.541-39.162-166.188-73.735c-70.823-40.374-151.097-86.136-249.689-108.971
		c-29.015-6.721-49.559-32.566-49.559-62.35V1162.2c0-13.476,4.254-26.608,12.155-37.525c38.359-52.996,70.9-129.72,100.352-204.735
		c16.381-41.676,16.095-79.046,15.662-135.612c-0.07-9.244-0.144-18.803-0.144-28.87c0-17.116,0.872-36.142,1.795-56.284
		c1.803-39.344,4.271-93.227-2.684-117.935C1220.375,454.034,1137.952,384,1024,384c-118.344,0-206.377,72.035-241.526,197.635
		c-6.874,24.578-4.4,78.246-2.595,117.433c0.93,20.183,1.809,39.247,1.809,56.39c0,9.909-0.069,19.33-0.136,28.441
		c-0.418,56.947-0.693,94.568,15.774,136.465c37.084,94.167,69.653,166.896,108.01,215.639
		c8.878,11.282,13.705,25.222,13.705,39.578v23.9c0,30.204-21.117,56.297-50.657,62.594
		c-103.091,21.976-186.209,69.354-259.542,111.156c-60.648,34.571-113.026,64.428-166.192,73.732
		c-62.099,10.868-105.027,35.645-127.59,73.641c-14.138,23.807-15.541,45.393-15.541,45.587c0,5.618-0.74,11.213-2.201,16.638
		L275.509,1663.835z"/>
</g>
</svg>
