<?xml version="1.0" encoding="utf-8"?>
<!-- Generator: Adobe Illustrator 15.1.0, SVG Export Plug-In . SVG Version: 6.00 Build 0)  -->
<!DOCTYPE svg PUBLIC "-//W3C//DTD SVG 1.1//EN" "http://www.w3.org/Graphics/SVG/1.1/DTD/svg11.dtd">
<svg version="1.1" id="icon-045-s" xmlns="http://www.w3.org/2000/svg" xmlns:xlink="http://www.w3.org/1999/xlink" x="0px" y="0px"
	 width="2048px" height="2048px" viewBox="0 0 2048 2048" enable-background="new 0 0 2048 2048" xml:space="preserve">
<path d="M1408,767.835v-128h-128v128h-162.037c-9.627-29.977-25.484-53.906-46.756-67.519h57.535l60.486-57.536
	c0,0-196.209,0-253.744,0c-138.674,0-255.219,98.843-255.219,199.159c0,115.07,76.714,197.685,191.783,197.685
	c22.129,0,22.129,0,39.832,0c-17.703,16.228-17.703,38.356-17.703,56.06c0,17.702,17.703,42.782,41.307,60.485
	c-23.604,0-41.307,0-41.307,0c-157.854,0-275.873,97.366-275.873,215.387c0,95.892,138.675,156.377,293.576,156.377
	c159.326,0,277.348-98.842,277.348-196.208c0-78.189-17.703-118.021-95.891-193.259c-39.832-25.08-81.141-42.782-81.141-82.614
	c0-16.228,0-38.357,41.309-76.713c37.176-15.072,58.6-46.571,68.49-83.304H1280v128h128v-128h128v-128H1408z M1108.09,1314.021
	v17.703c0,79.664-54.584,135.723-196.209,135.723c-115.07,0-194.734-56.059-194.734-135.723
	c0-78.189,97.367-138.675,194.734-138.675c38.355,0,59.01,0,81.139,0C1053.506,1234.357,1093.338,1253.535,1108.09,1314.021z
	 M935.484,999.792c-81.139,0-138.674-61.961-159.326-157.853c0-100.316,38.355-159.327,118.02-159.327
	c56.059,0,118.02,81.139,137.197,159.327C1053.506,937.831,1012.197,999.792,935.484,999.792z"/>
</svg>
