<?xml version="1.0" encoding="utf-8"?>
<!-- Generator: Adobe Illustrator 15.1.0, SVG Export Plug-In . SVG Version: 6.00 Build 0)  -->
<!DOCTYPE svg PUBLIC "-//W3C//DTD SVG 1.1//EN" "http://www.w3.org/Graphics/SVG/1.1/DTD/svg11.dtd">
<svg version="1.1" id="icon-073" xmlns="http://www.w3.org/2000/svg" xmlns:xlink="http://www.w3.org/1999/xlink" x="0px" y="0px"
	 width="2048px" height="2048px" viewBox="0 0 2048 2048" enable-background="new 0 0 2048 2048" xml:space="preserve">
<g>
	<path d="M1024,595.013c0,0-382.205-146.874-703.89-146.874V1535.94l127.892,128.094c236.83,0,575.998,63.178,575.998,63.178
		c0-0.002,339.402-63.177,576.232-63.177l127.73-128.149V448.139C1406.279,448.139,1024,595.013,1024,595.013z M1024.039,1598.999
		c-186.111-63.702-379.66-109.306-576.04-127.25V575.916c197.881,21.531,390.083,59.953,576,129.083l-0.107,0.114
		c185.918-69.131,378.266-107.702,576.146-129.233l0.043,896.01C1403.711,1489.81,1210.203,1535.393,1024.039,1598.999z"/>
	<path d="M575.941,831.499v192v24.061v56.216c91.118,6.814,196.961,27.287,310.324,60.234c26.687,7.756,51.491,15.539,73.735,22.867
		v-56.217v-27.865V910.796c-15.852-5.016-32.693-10.159-50.4-15.314C786.39,859.609,674.5,838.174,575.941,831.499z"/>
	<path d="M575.941,1215.477v80.275c91.118,6.814,196.961,27.287,310.324,60.234c26.687,7.756,51.491,15.539,73.735,22.867v-84.08
		c-15.852-5.016-32.693-10.158-50.4-15.314C786.39,1243.586,674.5,1222.15,575.941,1215.477z"/>
	<path d="M1088,910.98v84.078c22.186-7.307,46.912-15.063,73.508-22.793c113.361-32.947,219.205-53.419,310.322-60.232v-80.277
		c-98.559,6.674-210.447,28.109-333.658,63.982C1120.549,900.869,1103.783,905.988,1088,910.98z"/>
	<path d="M1088,1102.98v84.078c22.186-7.307,46.912-15.062,73.508-22.793c113.361-32.947,219.205-53.42,310.322-60.232v-80.277
		c-98.559,6.675-210.447,28.11-333.658,63.982C1120.549,1092.869,1103.783,1097.988,1088,1102.98z"/>
	<path d="M1088,1294.957v84.078c22.186-7.307,46.912-15.062,73.508-22.791c113.361-32.947,219.205-53.42,310.322-60.234v-80.277
		c-98.559,6.676-210.447,28.109-333.658,63.982C1120.549,1284.846,1103.783,1289.965,1088,1294.957z"/>
</g>
</svg>
