<?xml version="1.0" encoding="utf-8"?>
<!-- Generator: Adobe Illustrator 15.1.0, SVG Export Plug-In . SVG Version: 6.00 Build 0)  -->
<!DOCTYPE svg PUBLIC "-//W3C//DTD SVG 1.1//EN" "http://www.w3.org/Graphics/SVG/1.1/DTD/svg11.dtd">
<svg version="1.1" id="icon-056-s" xmlns="http://www.w3.org/2000/svg" xmlns:xlink="http://www.w3.org/1999/xlink" x="0px" y="0px"
	 width="2048px" height="2048px" viewBox="0 0 2048 2048" enable-background="new 0 0 2048 2048" xml:space="preserve">
<path d="M1409.9,884.964c-17.756-13.571-48.045-76.239-66.844-113.83c-18.797-37.597-90.857-71.019-90.857-71.019
	c20.883,1.044,28.195-8.357,28.195-8.357c-41.775-4.181-30.93-54.361-65.395-63.759c-34.461-9.397-74,0-74,0
	c7.314-3.132,14-59,14-59c-35.504,27.153-112,42-112,42c6.27-8.354-10-42-10-42c-32.367,31.334-92.023,37.124-92.023,37.124
	C631,630.999,632.803,855.574,632.803,855.574c0.054,0.095,0.084,0.148,0.084,0.148s-93.987,71.014-57.434,205.738
	c36.55,134.718,135.762,183.804,135.762,183.804s-17.748-106.522-19.842-126.367c-2.091-19.84,19.842-30.284,19.842-30.284
	s26.122-10.047,40.729-17.758C781,1055.517,836,1024,836,1024s-43.76,99.687-73,106.999c-29.246,7.308-36.553,19.84-36.553,19.84
	s0.553,18.16,40.119,31.764c28.43,9.774,54.223,10.266,70.607,8.936c0,0,7.986-0.883,19.631-3.269
	c2.688-1.056,5.243-1.599,7.671-1.682l18.558,8.69c11.131,8.566,15.246,22.041,22.44,31.197
	c11.489,14.62,78.326,105.478,90.858,130.543c12.531,25.064,115.924,170.228,115.924,170.228s6.539,2.959,17.631,7.952H1536V965.562
	C1496.576,939.859,1425.57,896.953,1409.9,884.964z M896,895.835c-35.347,0-64-28.653-64-64s28.653-64,64-64
	c35.346,0,64,28.653,64,64S931.346,895.835,896,895.835z"/>
</svg>
