<?xml version="1.0" encoding="utf-8"?>
<!-- Generator: Adobe Illustrator 15.1.0, SVG Export Plug-In . SVG Version: 6.00 Build 0)  -->
<!DOCTYPE svg PUBLIC "-//W3C//DTD SVG 1.1//EN" "http://www.w3.org/Graphics/SVG/1.1/DTD/svg11.dtd">
<svg version="1.1" id="icon-054" xmlns="http://www.w3.org/2000/svg" xmlns:xlink="http://www.w3.org/1999/xlink" x="0px" y="0px"
	 width="2048px" height="2048px" viewBox="0 0 2048 2048" enable-background="new 0 0 2048 2048" xml:space="preserve">
<path d="M1005.316,1556.737c36.861-3.687-8.592,16.313-27.023,20.729c0,0,174.48,226.528,188.816,338.095
	c3.736,29.014,19.125,77.14,39.84,132.438H2048v-931.177c-120.318-95.453-233.172-182.879-257.834-201.979
	c-49.402-38.231-272.484-353.743-331.445-417.483c-58.959-63.735-135.439-234.235-156.16-288.425
	c-20.713-54.165-41.428-58.95-58.959-43.021c-11.539,10.484-18.93,64.434-22.639,100.097c-0.254,2.607-9.734,99.558,0.016,218.961
	c0,0-25.734-143.718-20.303-215.68c-10.879-18.316-21.258-37.251-31.969-63.535c-17.521-43.031-19.121-95.327-42.109-71.711
	c-22.984,23.625-13.664,121.106-15.262,164.122c-1.586,43.036,27.273,212.008,9.568,254.965
	c-31.146,75.541-164.609,147.119-243.627,214.19c-86.733,73.614-103.276,191.743-170.16,245.144
	c-112.522,89.834-437.12,259.315-468.992,272.057c-31.868,12.758-60.553,36.663-58.955,74.903
	c1.593,38.242,81.262,94.014,81.262,94.014c35.059,62.158,81.272,98.78,221.487,137.031
	c224.291,61.207,408.383-4.976,432.713-13.826C938.963,1567.796,968.452,1560.434,1005.316,1556.737z M945.127,1022.645
	c0,0,102.535,63.724,115.604,65.691c0,0-38.294,32.343-81.489,38.946C979.241,1127.282,914.768,1122.042,945.127,1022.645z"/>
</svg>
