<?xml version="1.0" encoding="utf-8"?>
<!-- Generator: Adobe Illustrator 15.1.0, SVG Export Plug-In . SVG Version: 6.00 Build 0)  -->
<!DOCTYPE svg PUBLIC "-//W3C//DTD SVG 1.1//EN" "http://www.w3.org/Graphics/SVG/1.1/DTD/svg11.dtd">
<svg version="1.1" id="icon-033" xmlns="http://www.w3.org/2000/svg" xmlns:xlink="http://www.w3.org/1999/xlink" x="0px" y="0px"
	 width="2048px" height="2048px" viewBox="0 0 2048 2048" enable-background="new 0 0 2048 2048" xml:space="preserve">
<path fill="#231F20" d="M1341.648,1653.242c-121.01,54.455-225.885,72.604-371.094,72.604
	c-334.788,0-629.242-239.999-629.242-635.291c0-411.429,300.502-768.402,754.285-768.402c356.973,0,611.09,244.033,611.09,582.854
	c0,296.47-165.379,482.016-383.191,482.016c-94.789,0-163.361-50.419-173.445-155.293h-4.035
	c-64.535,100.841-153.274,155.293-262.183,155.293c-129.075,0-225.881-98.823-225.881-264.201
	c0-248.065,183.528-469.914,473.946-469.914c88.74,0,189.58,22.186,240,48.404l-60.504,375.125
	c-20.168,118.989-6.049,173.445,50.42,175.462c86.723,4.033,195.629-106.892,195.629-340.841
	c0-264.201-169.41-465.88-482.014-465.88c-310.59,0-578.821,240-578.821,627.225c0,338.823,213.779,528.403,514.284,528.403
	c102.855,0,213.779-22.187,294.453-62.523L1341.648,1653.242z M1162.152,820.303c-16.137-4.033-38.32-8.066-62.52-8.066
	c-133.111,0-237.986,131.092-237.986,286.387c0,76.638,34.286,125.04,100.842,125.04c74.621,0,153.275-94.79,171.428-211.765
	L1162.152,820.303z"/>
</svg>
