<?xml version="1.0" encoding="utf-8"?>
<!-- Generator: Adobe Illustrator 15.1.0, SVG Export Plug-In . SVG Version: 6.00 Build 0)  -->
<!DOCTYPE svg PUBLIC "-//W3C//DTD SVG 1.1//EN" "http://www.w3.org/Graphics/SVG/1.1/DTD/svg11.dtd">
<svg version="1.1" id="icon-029-s" xmlns="http://www.w3.org/2000/svg" xmlns:xlink="http://www.w3.org/1999/xlink" x="0px" y="0px"
	 width="2048px" height="2048px" viewBox="0 0 2048 2048" enable-background="new 0 0 2048 2048" xml:space="preserve">
<path d="M1377.441,879.114c-22.203-50.335-55.643-95.34-97.441-132.368V511.835l-221.482,132.89
	c-21.66-3.213-43.877-4.89-66.518-4.89c-229.75,0-416,171.923-416,384c0,123.204,62.862,232.851,160.588,303.117L640,1471.835h192
	l51.468-77.202c34.601,8.608,70.985,13.202,108.532,13.202c17.402,0,34.553-0.992,51.395-2.908l44.605,66.908h192l-77.732-116.599
	c78.479-42.519,140.516-108.108,175.174-186.681L1536,1215.835v-384L1377.441,879.114z M951.578,824.146
	c-82.309,11.143-149.711,64.605-175.438,135.688H704c28.553-106.627,126.805-187.878,247.578-200.204V824.146z M1152,959.835
	c-35.346,0-64-28.653-64-64s28.654-64,64-64s64,28.653,64,64S1187.346,959.835,1152,959.835z"/>
</svg>
