<?xml version="1.0" encoding="utf-8"?>
<!-- Generator: Adobe Illustrator 15.1.0, SVG Export Plug-In . SVG Version: 6.00 Build 0)  -->
<!DOCTYPE svg PUBLIC "-//W3C//DTD SVG 1.1//EN" "http://www.w3.org/Graphics/SVG/1.1/DTD/svg11.dtd">
<svg version="1.1" id="icon-053-s" xmlns="http://www.w3.org/2000/svg" xmlns:xlink="http://www.w3.org/1999/xlink" x="0px" y="0px"
	 width="2048px" height="2048px" viewBox="0 0 2048 2048" enable-background="new 0 0 2048 2048" xml:space="preserve">
<path d="M1305.109,1129.262c9.348-33.715,32.234-143.732,33.977-156.802c1.74-13.069,33.975-98.439,41.812-141.119
	c7.842-42.685,14.811-181.192-24.395-205.587c-39.197-24.391-114.984,55.754-126.307,68.818
	c-9.83,11.345-67.531,79.74-82.609,97.621c0,0-28.318-12.762-77.588-18.194c-79.57-8.773-73.279-2.124-73.279-2.124
	c-7.608-17.216-41.312-93.942-51.381-115.631c-11.323-24.39-55.752-87.983-97.566-79.271
	c-41.812,8.712-82.755,139.378-84.496,167.257c-1.746,27.875,0.868,135.891-13.069,201.229c-9.55,44.771-7.663,98.13-5.606,142.731
	c6.398,138.809-55.601,179.767-68.439,202.228c-13.938,24.393-83.624,105.408-135.021,136.77
	c-29.139,17.776-31.396,67.748-27.889,108.812h735.548c3.236-27.21,12.043-95.639,12.752-148.89
	c0.709-53.068-24.535-112.48-33.824-134.44C1227.729,1252.67,1283,1208.999,1305.109,1129.262z M993.352,1065.74
	c0,0-49.857,19.222-90.105-4.202c-40.252-23.426-23.431-66.679-23.431-66.679s32.442-30.638,80.499-7.809
	C1008.369,1009.877,993.352,1065.74,993.352,1065.74z M1182.936,1093.044c-53.951,8.587-69.893-22.68-69.893-22.68
	s5.518-53.956,53.955-63.765c48.434-9.81,66.215,22.688,66.215,22.688S1236.893,1084.463,1182.936,1093.044z"/>
</svg>
