<?xml version="1.0" encoding="utf-8"?>
<!-- Generator: Adobe Illustrator 15.1.0, SVG Export Plug-In . SVG Version: 6.00 Build 0)  -->
<!DOCTYPE svg PUBLIC "-//W3C//DTD SVG 1.1//EN" "http://www.w3.org/Graphics/SVG/1.1/DTD/svg11.dtd">
<svg version="1.1" id="icon-077-s" xmlns="http://www.w3.org/2000/svg" xmlns:xlink="http://www.w3.org/1999/xlink" x="0px" y="0px"
	 width="2048px" height="2048px" viewBox="0 0 2048 2048" enable-background="new 0 0 2048 2048" xml:space="preserve">
<path fill="#231F20" d="M1408,1407.178V602.256L860.568,398.512c-10.432-4.113-106.627-39.362-182.268,30.544
	c-25.256,23.328-39.543,58.083-38.215,92.984L640,1329.909c0,14.135,8.654,26.846,21.826,32.017l490.775,173.072L1408,1407.178z
	 M1344,1407.363l-126.9,62.648l-0.111-721.029l127.51-65.057L1344,1407.363z M708.879,519.416
	c-0.564-14.854,5.619-30.112,16.137-39.836c45.656-42.191,107.559-18.171,109.959-17.197c0.396,0.164,0.777,0.318,1.172,0.458
	l510.209,188.913l-147.961,78.391c-0.889-0.457-1.764-0.959-2.697-1.348l-474.01-188.833
	C714.836,537.042,709.148,526.649,708.879,519.416z"/>
</svg>
