<?xml version="1.0" encoding="utf-8"?>
<!-- Generator: Adobe Illustrator 15.1.0, SVG Export Plug-In . SVG Version: 6.00 Build 0)  -->
<!DOCTYPE svg PUBLIC "-//W3C//DTD SVG 1.1//EN" "http://www.w3.org/Graphics/SVG/1.1/DTD/svg11.dtd">
<svg version="1.1" id="icon-048" xmlns="http://www.w3.org/2000/svg" xmlns:xlink="http://www.w3.org/1999/xlink" x="0px" y="0px"
	 width="2048px" height="2048px" viewBox="0 0 2048 2048" enable-background="new 0 0 2048 2048" xml:space="preserve">
<path fill="#231F20" d="M1408,831.835v-128c0-212.077-171.924-384-384-384c-212.078,0-384,171.923-384,384v128H512v832h1024v-832
	H1408z M1152,1471.835H896l97.885-195.771C937.678,1262.168,896,1211.409,896,1150.907c0-60.188,41.244-110.738,97.009-124.941
	c10.744-3.264,22.142-5.024,33.952-5.024c24.385,0,47.02,7.486,65.74,20.278c36.701,22.726,61.152,63.348,61.152,109.688
	c0,61.095-42.494,112.26-99.537,125.56L1152,1471.835z M1280,831.835H768v-128h-0.001c0-141.385,114.615-256,256.001-256
	c141.385,0,256,114.615,256,256V831.835z"/>
</svg>
