<?xml version="1.0" encoding="utf-8"?>
<!-- Generator: Adobe Illustrator 15.1.0, SVG Export Plug-In . SVG Version: 6.00 Build 0)  -->
<!DOCTYPE svg PUBLIC "-//W3C//DTD SVG 1.1//EN" "http://www.w3.org/Graphics/SVG/1.1/DTD/svg11.dtd">
<svg version="1.1" id="icon-049" xmlns="http://www.w3.org/2000/svg" xmlns:xlink="http://www.w3.org/1999/xlink" x="0px" y="0px"
	 width="2048px" height="2048px" viewBox="0 0 2048 2048" enable-background="new 0 0 2048 2048" xml:space="preserve">
<path d="M1646.137,402.111c0,0-181.258,47.187-326.639,47.187c-145.375,0-297.104-79.246-297.104-79.246
	s-145.342,79.246-293.893,79.246c-148.553,0-326.674-47.187-326.674-47.187s-32.706,102.435-32.706,261.223
	c0,405.89,130.005,662.44,305.771,807.032c105.467,86.76,276.703,207.582,347.502,207.582c70.836,0,243.463-121.16,349.785-208.615
	c176.051-144.896,306.699-400.109,306.699-805.999C1678.879,507.042,1646.137,402.111,1646.137,402.111z M901.002,1331.659
	l-120.2-120.201L600.5,1031.157l120.201-120.202l180.301,180.302l480.805-420.702l120.201,120.199L901.002,1331.659z"/>
</svg>
