<?xml version="1.0" encoding="utf-8"?>
<!-- Generator: Adobe Illustrator 15.1.0, SVG Export Plug-In . SVG Version: 6.00 Build 0)  -->
<!DOCTYPE svg PUBLIC "-//W3C//DTD SVG 1.1//EN" "http://www.w3.org/Graphics/SVG/1.1/DTD/svg11.dtd">
<svg version="1.1" id="icon-046" xmlns="http://www.w3.org/2000/svg" xmlns:xlink="http://www.w3.org/1999/xlink" x="0px" y="0px"
	 width="2048px" height="2048px" viewBox="0 0 2048 2048" enable-background="new 0 0 2048 2048" xml:space="preserve">
<path fill="#231F20" d="M1024,255.834c-424.155,0-768,343.845-768,768c0,380.543,276.774,696.435,640,757.374v-565.373H704V959.834
	l192,0.001c0,0,0-151.547,0-184.298c0-32.816-24.497-263.703,256-263.703c37.594,0,192,0,192,0v256c0,0-126.525,0-128,0
	c-28.848,0-62.959,35.407-64,64c0,22.339,0,127.999,0,127.999h192l-64,256.001h-128v565.373c363.225-60.939,640-376.831,640-757.374
	C1792,599.68,1448.154,255.834,1024,255.834z"/>
</svg>
