<?xml version="1.0" encoding="utf-8"?>
<!-- Generator: Adobe Illustrator 15.1.0, SVG Export Plug-In . SVG Version: 6.00 Build 0)  -->
<!DOCTYPE svg PUBLIC "-//W3C//DTD SVG 1.1//EN" "http://www.w3.org/Graphics/SVG/1.1/DTD/svg11.dtd">
<svg version="1.1" id="icon-082-s" xmlns="http://www.w3.org/2000/svg" xmlns:xlink="http://www.w3.org/1999/xlink" x="0px" y="0px"
	 width="2048px" height="2048px" viewBox="0 0 2048 2048" enable-background="new 0 0 2048 2048" xml:space="preserve">
<path d="M1673.189,642.154l-201.914,195.914H1168.35c-21.035,0-39.033,4.139-52.756,11.723
	c-13.684,7.592-23.09,18.657-27.018,32.464c-3.746,13.295-1.783,26.345,4.82,37.044c6.641,10.725,17.824,19.161,32.404,23.34
	c8.838,2.559,26.094,7.456,40.998,11.752c15.002,4.303,27.766,8.024,27.766,8.024c56.918,16.332,96.016,41.862,117.645,77.071
	c21.57,35.203,25.623,80.057,12.494,135.042c-35.016,146.387-117.645,219.582-203.811,256.179
	c-86.195,36.6-175.812,36.6-224.886,36.6H374.81l77.003-211.43h486.896c39.033-0.298,64.746-2.559,82.176-9.581
	c17.469-7.113,26.695-18.631,32.703-36.541c2.408-7.021,3.482-13.624,3.299-19.786c-0.146-6.099-1.574-11.81-4.191-17.018
	c-4.076-7.889-10.439-13.566-17.559-17.791c-7.139-4.258-15.021-7.146-22.158-9.315c-12.172-3.689-31.488-9.343-47.938-14.103
	c-16.576-4.705-30.201-8.632-31.215-8.865c-25.946-7.945-50.107-20.311-70.219-35.513c-20.144-15.202-36.236-33.277-46.18-52.412
	c-8.029-15.726-11.725-33.813-11.039-55.095c0.626-21.196,5.717-45.597,15.266-73.965
	c44.131-131.898,101.459-197.803,166.387-230.799c64.926-32.939,137.373-32.939,211.996-32.939H1673.189"/>
</svg>
