<?xml version="1.0" encoding="utf-8"?>
<!-- Generator: Adobe Illustrator 15.1.0, SVG Export Plug-In . SVG Version: 6.00 Build 0)  -->
<!DOCTYPE svg PUBLIC "-//W3C//DTD SVG 1.1//EN" "http://www.w3.org/Graphics/SVG/1.1/DTD/svg11.dtd">
<svg version="1.1" id="icon-030-s" xmlns="http://www.w3.org/2000/svg" xmlns:xlink="http://www.w3.org/1999/xlink" x="0px" y="0px"
	 width="2048px" height="2048px" viewBox="0 0 2048 2048" enable-background="new 0 0 2048 2048" xml:space="preserve">
<g>
	<path d="M1536,1151.835l-64-64l64-64.001l-64-63.999l64-63.999v-0.002c-70.693,0-128-57.307-128-128H640
		c0,70.692-57.308,128-128,128l64,64.002l-64,64l64,63.999l-64,63.999c70.692,0.001,128,57.309,128,128l768,0.001
		C1408,1209.142,1465.307,1151.835,1536,1151.835L1536,1151.835z M1344,959.836v127.999v64h-64H767.999H704v-64V959.836v-64h63.999
		H1280h64V959.836z"/>
	<rect x="767.999" y="959.836" width="512.001" height="127.999"/>
</g>
</svg>
