<?xml version="1.0" encoding="utf-8"?>
<!-- Generator: Adobe Illustrator 15.1.0, SVG Export Plug-In . SVG Version: 6.00 Build 0)  -->
<!DOCTYPE svg PUBLIC "-//W3C//DTD SVG 1.1//EN" "http://www.w3.org/Graphics/SVG/1.1/DTD/svg11.dtd">
<svg version="1.1" id="icon-012-s" xmlns="http://www.w3.org/2000/svg" xmlns:xlink="http://www.w3.org/1999/xlink" x="0px" y="0px"
	 width="2048px" height="2048px" viewBox="0 0 2048 2048" enable-background="new 0 0 2048 2048" xml:space="preserve">
<path d="M1408,1279.835l-222.639-222.638c19.592-38.898,30.639-82.838,30.639-129.362c0-159.058-128.943-288-288-288
	c-159.059,0-288,128.942-288,288s128.941,288,288,288c46.524,0,90.464-11.047,129.361-30.638L1280,1407.835L1408,1279.835z
	 M768,927.835c0-88.366,71.634-160,160-160c88.365,0,160,71.634,160,160c0,88.365-71.635,160-160,160
	C839.634,1087.835,768,1016.2,768,927.835z"/>
</svg>
