<?xml version="1.0" encoding="utf-8"?>
<!-- Generator: Adobe Illustrator 15.1.0, SVG Export Plug-In . SVG Version: 6.00 Build 0)  -->
<!DOCTYPE svg PUBLIC "-//W3C//DTD SVG 1.1//EN" "http://www.w3.org/Graphics/SVG/1.1/DTD/svg11.dtd">
<svg version="1.1" id="icon-055-s" xmlns="http://www.w3.org/2000/svg" xmlns:xlink="http://www.w3.org/1999/xlink" x="0px" y="0px"
	 width="2048px" height="2048px" viewBox="0 0 2048 2048" enable-background="new 0 0 2048 2048" xml:space="preserve">
<path d="M942.164,695.336c-10.809-7.781-35.103-27.146-48.502-55.111c-16.947-35.371-22.107-49.37-28.74-48.636
	c-6.631,0.738-15.471,32.423-14.736,73.688c0.734,41.264,16.947,79.583,37.58,101.689c0,0-21.367,54.529-47.896,57.475
	c0,0,0.734,5.896,23.947,0c0,0-0.369,16.212-15.107,29.477c-14.738,13.263-37.58,41.263-42.736,59.684
	c-5.156,18.422,11.051,52.318,15.473,75.162c4.42,22.844-9.576,106.111-13.262,124.531c-3.688,18.424-22.104,93.583-30.211,112.006
	c-8.106,18.421-33.16,61.16-37.581,72.213c-4.421,11.054-6.632,22.844,0,30.209c6.631,7.372,37.581,49.372,39.052,64.109
	c1.476,14.74,8.105,33.898,22.107,38.318c13.57,4.286,40.406,18.944,65.449-0.151c3.861-3.268,18.725-31.951,21-48
	c0,0,6.984,32.655,1.844,48.22c8.24-0.326,18.25-2.506,28.133-13.333c15.473-16.948,7.371-36.105,20.633-49.37
	c13.262-13.262,89.9-99.477,101.688-123.794c11.791-24.316,11.791-31.686,11.791-31.686s72.432-9.576,123.484-80.569
	c6.057-9.65,124.785,60.908,168.316,118.886c52.318,69.679,68.527,89.897,67.791,159.902
	c-0.508,48.425,10.967,95.778,20.289,125.745H1536V768.061c-67.125-32.92-141.854-64.586-209.059-74.781
	c-131.162-19.896-218.854-8.844-218.854-8.844s-33.154-81.055-78.107-108.321c-11.053-4.421-0.736,39.057-2.945,62.636
	c-2.211,23.578-5.162,54.529-5.162,56.739c0,2.142-31.854-12.334-68.711,3.564L942.164,695.336z M961.139,979.9
	c0,0,7.815-13.292,11.162-24.982c3.336-11.694,8.059-35.165,33.947-38.511c32.408-4.187,48.461,33.421,60.152,31.749
	C1066.4,948.156,1030.482,1024.182,961.139,979.9z"/>
</svg>
