<?xml version="1.0" encoding="utf-8"?>
<!-- Generator: Adobe Illustrator 15.1.0, SVG Export Plug-In . SVG Version: 6.00 Build 0)  -->
<!DOCTYPE svg PUBLIC "-//W3C//DTD SVG 1.1//EN" "http://www.w3.org/Graphics/SVG/1.1/DTD/svg11.dtd">
<svg version="1.1" id="icon-058" xmlns="http://www.w3.org/2000/svg" xmlns:xlink="http://www.w3.org/1999/xlink" x="0px" y="0px"
	 width="2048px" height="2048px" viewBox="0 0 2048 2048" enable-background="new 0 0 2048 2048" xml:space="preserve">
<g>
	<path fill="#231F20" d="M1667.219,297.286c-57.756-33.029-181.758-76.507-214.787-18.752
		c-1.053,1.843-320.055,666.406-422.746,880.345c82.695-3.564,160.799-12.609,225.572-26.342
		c62.193-13.187,120.764-39.599,120.764-39.599s415.465-618.623,416.275-620.04C1825.326,415.144,1724.973,330.315,1667.219,297.286
		z"/>
	<path fill="#231F20" d="M1541.961,955.379c0,0-60.227,97.641-105.441,155.854S1189.758,1213.3,949.801,1213.3
		c-274.444,0-496.926-57.306-496.926-127.996c0-15.469,10.654-30.297,30.174-44.024c-0.013-0.384-0.058-0.766-0.058-1.151
		c0-1.601,2.813-2.943,8.004-4.06c74.895-46.25,252.102-78.762,458.805-78.762c36.982,0,73.01,1.048,107.688,3.021l55.037-116.636
		C705.982,808.939,227,906.451,227,1136.234c0,399.192,323.609,722.802,722.801,722.802c399.193,0,722.803-323.609,722.803-722.802
		C1672.604,1062.228,1622.908,1001.945,1541.961,955.379z"/>
</g>
</svg>
