<?xml version="1.0" encoding="utf-8"?>
<!-- Generator: Adobe Illustrator 15.1.0, SVG Export Plug-In . SVG Version: 6.00 Build 0)  -->
<!DOCTYPE svg PUBLIC "-//W3C//DTD SVG 1.1//EN" "http://www.w3.org/Graphics/SVG/1.1/DTD/svg11.dtd">
<svg version="1.1" id="icon-049-s" xmlns="http://www.w3.org/2000/svg" xmlns:xlink="http://www.w3.org/1999/xlink" x="0px" y="0px"
	 width="2048px" height="2048px" viewBox="0 0 2048 2048" enable-background="new 0 0 2048 2048" xml:space="preserve">
<path d="M1408,639.835c0,0-105.102,64-192,64c-86.895,0-192-64-192-64s-103.207,64-192,64c-88.795,0-192-64-192-64
	s-7.439,73.673-7.439,168.585c0,242.612,77.708,395.96,182.768,482.386c63.041,51.859,166.354,117.029,208.672,117.029
	c42.34,0,144.564-65.373,208.117-117.646c105.23-86.609,183.322-239.156,183.322-481.769C1415.439,715,1408,639.835,1408,639.835z
	 M960,1151.835l-128-128l64-64l64,64l192-192l64,64L960,1151.835z"/>
</svg>
