<?xml version="1.0" encoding="utf-8"?>
<!-- Generator: Adobe Illustrator 15.1.0, SVG Export Plug-In . SVG Version: 6.00 Build 0)  -->
<!DOCTYPE svg PUBLIC "-//W3C//DTD SVG 1.1//EN" "http://www.w3.org/Graphics/SVG/1.1/DTD/svg11.dtd">
<svg version="1.1" id="icon-055" xmlns="http://www.w3.org/2000/svg" xmlns:xlink="http://www.w3.org/1999/xlink" x="0px" y="0px"
	 width="2048px" height="2048px" viewBox="0 0 2048 2048" enable-background="new 0 0 2048 2048" xml:space="preserve">
<path d="M1327.146,1238.935c12.111-19.301,31.93-58.273,56.076-133.097c0,0,6.703,47.189-17.029,108.979
	c51.113,34.261,210.521,145.936,297.582,261.89c104.639,139.358,137.057,179.796,135.586,319.805
	c-1.018,96.849,21.932,191.556,40.578,251.489H2048V512.123c-134.25-65.84-283.709-129.173-418.117-149.564
	c-262.324-39.792-437.707-17.688-437.707-17.688s-66.309-162.108-156.215-216.642c-22.104-8.841-1.471,78.114-5.893,125.271
	c-4.42,47.157-10.32,109.058-10.32,113.479c0,4.283-63.711-24.668-137.424,7.128c-7.105,3.421-17.661,9.682-29.443,20.655
	c-21.33,19.861-21.33,19.861-21.33,19.861s9.951-31.024,28.775-47.951c-21.614-15.562-70.203-54.292-97-110.222
	c-33.896-70.742-44.217-98.742-57.482-97.272c-13.262,1.476-30.942,64.846-29.473,147.375
	c1.471,82.528,33.895,159.167,75.162,203.379c0,0-42.736,109.059-95.795,114.95c0,0,1.471,11.79,47.896,0
	c0,0-0.739,32.424-30.215,58.954c-29.476,26.523-75.161,82.525-85.472,119.365c-10.313,36.846,22.101,104.637,30.943,150.326
	c8.842,45.687-19.152,212.221-26.522,249.062c-7.373,36.847-44.208,187.166-60.421,224.013
	c-16.213,36.841-66.32,122.32-75.162,144.424c-8.841,22.108-13.263,45.688,0,60.42c13.262,14.743,75.162,98.743,78.103,128.217
	c2.952,29.481,16.212,67.797,44.217,76.639c27.138,8.571,99.953,42.05,150.039,3.859c7.723-6.536,24.295-25.763,28.843-57.859
	c0,0,7.983,23.007-2.297,54.137c16.479-0.654,36.499-5.013,56.265-26.667c30.946-33.896,14.744-72.211,41.266-98.741
	c26.525-26.523,179.801-198.953,203.375-247.587c23.584-48.633,23.584-63.371,23.584-63.371S1225.037,1380.921,1327.146,1238.935z
	 M941.645,915.218c0,0,9.191-15.632,13.127-29.38c3.922-13.754,9.477-41.356,39.924-45.291
	c38.113-4.923,56.992,39.305,70.742,37.338C1065.438,877.885,1023.195,967.293,941.645,915.218z"/>
</svg>
