<?xml version="1.0" encoding="utf-8"?>
<!-- Generator: Adobe Illustrator 15.1.0, SVG Export Plug-In . SVG Version: 6.00 Build 0)  -->
<!DOCTYPE svg PUBLIC "-//W3C//DTD SVG 1.1//EN" "http://www.w3.org/Graphics/SVG/1.1/DTD/svg11.dtd">
<svg version="1.1" id="icon-047" xmlns="http://www.w3.org/2000/svg" xmlns:xlink="http://www.w3.org/1999/xlink" x="0px" y="0px"
	 width="2048px" height="2048px" viewBox="0 0 2048 2048" enable-background="new 0 0 2048 2048" xml:space="preserve">
<path d="M1024,257.33c-423.411,0-766.67,343.237-766.67,766.67c0,423.41,343.259,766.67,766.67,766.67
	c423.41,0,766.67-343.26,766.67-766.67C1790.67,600.567,1447.41,257.33,1024,257.33z M780.135,1376.928
	c-60.729,0-109.981-49.209-109.981-109.971c0-60.736,49.253-109.957,109.981-109.957c60.703,0,109.977,49.221,109.977,109.957
	C890.111,1327.719,840.838,1376.928,780.135,1376.928z M1055.93,1377.127c-1.027-102.308-40.985-198.228-112.939-270.543
	c-72.807-73.163-169.657-113.424-272.703-113.424V834.371c298.904,0,542.248,243.111,544.418,542.756H1055.93z M1336.404,1377.127
	c-2.258-367.292-300.078-665.439-665.893-665.439V552.926c453.393,0,822.398,369.343,824.678,824.201H1336.404z"/>
</svg>
