<?xml version="1.0" encoding="utf-8"?>
<!-- Generator: Adobe Illustrator 15.1.0, SVG Export Plug-In . SVG Version: 6.00 Build 0)  -->
<!DOCTYPE svg PUBLIC "-//W3C//DTD SVG 1.1//EN" "http://www.w3.org/Graphics/SVG/1.1/DTD/svg11.dtd">
<svg version="1.1" id="icon-078" xmlns="http://www.w3.org/2000/svg" xmlns:xlink="http://www.w3.org/1999/xlink" x="0px" y="0px"
	 width="2048px" height="2048px" viewBox="0 0 2048 2048" enable-background="new 0 0 2048 2048" xml:space="preserve">
<g>
	<path d="M1408.031,575.843l-128.029-192H768.016l-128,191.97H576v-63.977H384.018v63.977H256.02v1024.03h1535.996v-1024H1408.031z
		 M1024.07,1431.244c-207.121,0-375.024-167.904-375.024-375.024c0-207.121,167.903-375.025,375.024-375.025
		s375.025,167.904,375.025,375.025C1399.096,1263.34,1231.191,1431.244,1024.07,1431.244z M1537,1470.999c-35.348,0-64-28.653-64-64
		s28.652-64,64-64c35.346,0,64,28.653,64,64S1572.346,1470.999,1537,1470.999z"/>
	<circle cx="1024.07" cy="1056.22" r="225.015"/>
</g>
</svg>
