<?xml version="1.0" encoding="utf-8"?>
<!-- Generator: Adobe Illustrator 15.1.0, SVG Export Plug-In . SVG Version: 6.00 Build 0)  -->
<!DOCTYPE svg PUBLIC "-//W3C//DTD SVG 1.1//EN" "http://www.w3.org/Graphics/SVG/1.1/DTD/svg11.dtd">
<svg version="1.1" id="icon-024-s" xmlns="http://www.w3.org/2000/svg" xmlns:xlink="http://www.w3.org/1999/xlink" x="0px" y="0px"
	 width="2048px" height="2048px" viewBox="0 0 2048 2048" enable-background="new 0 0 2048 2048" xml:space="preserve">
<path d="M1024,490.501c-212.078,0-384,171.922-384,384c0,184.922,133.578,327.17,256,415.601v117.732l64,128h128l64-128v-117.732
	c122.422-88.431,256-230.679,256-415.601C1408,662.424,1236.076,490.501,1024,490.501z M1088,1172.721l-64-276.886l-64,276.887
	c-86.564-51.271-192-142.742-192-276.887c0-141.385,114.615-256,256-256s256,114.615,256,256
	C1280,1029.979,1174.564,1121.451,1088,1172.721z"/>
</svg>
