<svg xmlns="http://www.w3.org/2000/svg" width="2048" height="2048" viewBox="0 0 2048 2048"><path d="M967.322 1400.073s0 14.738 23.584 63.371c23.574 48.634 176.85 221.063 203.375 247.587 26.521 26.53 10.319 64.846 41.266 98.741 19.766 21.654 39.785 26.013 56.265 26.667-10.28-31.13-2.297-54.137-2.297-54.137 4.548 32.097 21.12 51.323 28.843 57.859 50.086 38.19 122.901 4.712 150.039-3.859 28.005-8.842 41.266-47.157 44.217-76.639 2.941-29.474 64.842-113.474 78.104-128.217 13.262-14.731 8.841-38.312 0-60.42-8.842-22.104-58.949-107.583-75.162-144.424-16.215-36.847-53.049-187.166-60.422-224.013-7.37-36.841-35.364-203.375-26.522-249.062 8.842-45.689 41.257-113.48 30.942-150.326-10.311-36.84-55.996-92.842-85.472-119.365-29.476-26.53-30.215-58.954-30.215-58.954 46.425 11.79 47.896 0 47.896 0-53.059-5.892-95.795-114.95-95.795-114.95 41.268-44.212 73.691-120.851 75.162-203.379 1.47-82.53-16.211-145.9-29.473-147.375-13.266-1.47-23.586 26.53-57.482 97.272-26.797 55.93-75.386 94.659-97 110.222 18.824 16.927 28.775 47.951 28.775 47.951l-21.33-19.861c-11.782-10.973-22.338-17.233-29.443-20.655-73.713-31.796-137.424-2.845-137.424-7.128 0-4.421-5.9-66.322-10.32-113.479-4.422-47.158 16.211-134.113-5.893-125.271-89.906 54.534-156.215 216.642-156.215 216.642s-175.383-22.104-437.707 17.688C283.209 382.949 133.75 446.283-.5 512.123V2048h208.061c18.646-59.934 41.596-154.641 40.578-251.489-1.471-140.009 30.947-180.446 135.586-319.805 87.061-115.954 246.469-227.629 297.582-261.89-23.732-61.789-17.029-108.979-17.029-108.979 24.146 74.823 43.965 113.796 56.076 133.097 102.109 141.987 246.968 161.139 246.968 161.139zm14.74-522.188c13.75 1.967 32.629-42.261 70.742-37.338 30.447 3.935 36.002 31.537 39.924 45.291 3.936 13.748 13.127 29.38 13.127 29.38-81.55 52.075-123.793-37.333-123.793-37.333z"/></svg>