<svg xmlns="http://www.w3.org/2000/svg" width="2048" height="2048" viewBox="0 0 2048 2048"><path d="M1682.787 642.119c-11.52-18.609-25.523-34.881-40.641-49.875 1.26 14.309 2.086 28.797 2.053 43.665.092 71.773-13.93 142.4-41.611 209.839-27.717 67.562-63.605 123.882-106.729 167.417-42.188 42.509-89.074 75.593-139.646 98.466-48.039 21.545-104.729 36.414-178.631 46.797-43.014 5.918-106.17 8.494-211.168 8.545H943.5l-60.437 289.014-7.97 37.848-15.93 75.615H664.822l-17.727 96.025h314.709l7.975-49.252 76.24-364.588h100.32c94.67-.068 158.758-2.229 198.193-7.627 61.338-8.607 111.656-20.986 152.623-39.379 40.332-18.234 77.461-44.818 111.008-78.635 35.512-35.832 63.752-81.729 86.195-136.462 22.945-55.848 34.572-114.105 34.502-173.555.146-64.612-14.756-123.897-46.073-173.858z"/><path d="M1175.928 323.446H708.125L467.17 1474.179h314.71l7.992-37.865 76.238-364.584h100.303c94.688-.055 158.762-2.23 198.174-7.65 61.338-8.623 111.697-20.965 152.627-39.364 40.348-18.248 77.496-44.848 111.047-78.648 35.488-35.852 63.748-81.746 86.172-136.459 22.947-55.848 34.592-114.108 34.52-173.556.125-64.595-14.795-123.916-46.113-173.859-30.521-49.369-74.65-86.841-127.967-108.225-53.269-21.435-118.926-30.396-198.945-30.523zM966.141 592.264h116.916c3.314-.037 6.572-.057 9.756-.057 54.717 0 93.84 4.052 106.566 7.112 1.816.43 3.076.847 3.797 1.225 12.49 4.715 19.039 10.078 24.658 17.925 4.498 6.678 8.35 16.99 8.424 35.564-.127 28.654-7.703 52.695-24.516 77.173-16.738 23.649-37.922 40.21-68.391 51.782-3.041 1.24-6.842 2.467-11.359 3.655-31.621 8.275-98.717 14.863-192.27 14.863h-17.605l44.024-209.242z"/></svg>