<?xml version="1.0" encoding="utf-8"?>
<!-- Generator: Adobe Illustrator 15.1.0, SVG Export Plug-In . SVG Version: 6.00 Build 0)  -->
<!DOCTYPE svg PUBLIC "-//W3C//DTD SVG 1.1//EN" "http://www.w3.org/Graphics/SVG/1.1/DTD/svg11.dtd">
<svg version="1.1" id="icon-081" xmlns="http://www.w3.org/2000/svg" xmlns:xlink="http://www.w3.org/1999/xlink" x="0px" y="0px"
	 width="2048px" height="2048px" viewBox="0 0 2048 2048" enable-background="new 0 0 2048 2048" xml:space="preserve">
<path d="M1345,897H833V576h512V897z M575.75,703H383.5c-17.144,0-33.193-6.49-45.191-18.45c-11.968-11.939-18.559-27.949-18.559-45
	c0-35.01,28.822-63.55,64.25-63.55h192.25c17.144,0,33.193,6.7,45.191,18.66C633.409,606.6,640,622.5,640,639.55
	C640,674.569,611.178,703,575.75,703z M575.75,1088H383.5c-17.144,0-33.193-6.485-45.191-18.452
	c-11.968-11.936-18.559-27.949-18.559-44.995C319.75,989.539,348.572,961,384,961h192.25c17.144,0,33.193,6.694,45.191,18.661
	c11.968,11.936,18.559,27.844,18.559,44.89C640,1059.565,611.178,1088,575.75,1088z M575.75,1471H383.5
	c-17.144,0-33.193-6.485-45.191-18.452c-11.968-11.936-18.559-27.948-18.559-44.993c0-35.016,28.822-63.555,64.25-63.555h192.25
	c17.144,0,33.193,6.694,45.191,18.661c11.968,11.936,18.559,27.845,18.559,44.892C640,1442.566,611.178,1471,575.75,1471z M448,319
	v193h-64c-70.693,0-128.25,56.81-128.25,127.5c0,70.69,57.057,127.5,127.75,127.5H448v130h-64
	c-70.693,0-128.25,56.808-128.25,127.501c0,70.691,57.057,127.499,127.75,127.499H448v128h-64
	c-70.693,0-128.25,56.807-128.25,127.502c0,70.691,57.057,127.498,127.75,127.498H448v193h1152V319H448z"/>
</svg>
