<?xml version="1.0" encoding="utf-8"?>
<!-- Generator: Adobe Illustrator 15.1.0, SVG Export Plug-In . SVG Version: 6.00 Build 0)  -->
<!DOCTYPE svg PUBLIC "-//W3C//DTD SVG 1.1//EN" "http://www.w3.org/Graphics/SVG/1.1/DTD/svg11.dtd">
<svg version="1.1" id="icon-058-s" xmlns="http://www.w3.org/2000/svg" xmlns:xlink="http://www.w3.org/1999/xlink" x="0px" y="0px"
	 width="2048px" height="2048px" viewBox="0 0 2048 2048" enable-background="new 0 0 2048 2048" xml:space="preserve">
<g>
	<path fill="#231F20" d="M973,1119.848c-152,0.151-261-41.849-262.112-76.798c-0.295-9.276,6.393-18.178,18.104-26.414
		c-0.008-0.23-0.034-0.46-0.034-0.691c0-0.96,1.688-1.766,4.803-2.436c40.833-25.217,132.358-43.624,241.79-46.776l36.376-72.752
		c-217.798-0.533-436.564,59.34-436.564,179.628c0,239.516,194.166,433.682,433.68,433.682
		c239.516,0,433.682-194.166,433.682-433.682c0-44.404-29.816-80.573-78.385-108.513c0,0-28.41,66.291-63.266,93.512
		c-35.074,27.392-72.951,26.652-109.498,36.752c116.158-169.891,286.6-419.192,286.92-419.752
		c19.818-34.653-40.395-85.55-75.047-105.368c-34.652-19.817-109.055-45.904-128.871-11.251L973,1119.848z"/>
</g>
</svg>
