<?xml version="1.0" encoding="utf-8"?>
<!-- Generator: Adobe Illustrator 15.1.0, SVG Export Plug-In . SVG Version: 6.00 Build 0)  -->
<!DOCTYPE svg PUBLIC "-//W3C//DTD SVG 1.1//EN" "http://www.w3.org/Graphics/SVG/1.1/DTD/svg11.dtd">
<svg version="1.1" id="icon-033-s" xmlns="http://www.w3.org/2000/svg" xmlns:xlink="http://www.w3.org/1999/xlink" x="0px" y="0px"
	 width="2048px" height="2048px" viewBox="0 0 2048 2048" enable-background="new 0 0 2048 2048" xml:space="preserve">
<path fill="#231F20" d="M1222.533,1417.283c-75.633,34.035-141.18,45.379-231.938,45.379
	c-209.246,0-393.283-150.002-393.283-397.064c0-257.146,187.818-480.26,471.437-480.26c223.111,0,381.938,152.523,381.938,364.291
	c0,185.297-103.363,301.265-239.5,301.265c-59.244,0-102.102-31.513-108.404-97.06h-2.521
	c-40.336,63.026-95.799,97.06-163.867,97.06c-80.674,0-141.179-61.766-141.179-165.129c0-155.044,114.707-293.701,296.222-293.701
	c55.463,0,118.49,13.866,150.002,30.253l-37.814,234.458c-12.605,74.369-3.781,108.405,31.512,109.665
	c54.203,2.521,122.271-66.809,122.271-213.029c0-165.128-105.883-291.18-301.264-291.18c-194.122,0-361.77,150.002-361.77,392.022
	c0,211.768,133.613,330.258,321.434,330.258c64.285,0,133.613-13.867,184.035-39.078L1222.533,1417.283z M1110.346,896.688
	c-10.084-2.521-23.949-5.042-39.074-5.042c-83.196,0-148.744,81.934-148.744,178.995c0,47.899,21.43,78.151,63.027,78.151
	c46.639,0,95.799-59.245,107.145-132.356L1110.346,896.688z"/>
</svg>
