<?xml version="1.0" encoding="utf-8"?>
<!-- Generator: Adobe Illustrator 15.1.0, SVG Export Plug-In . SVG Version: 6.00 Build 0)  -->
<!DOCTYPE svg PUBLIC "-//W3C//DTD SVG 1.1//EN" "http://www.w3.org/Graphics/SVG/1.1/DTD/svg11.dtd">
<svg version="1.1" id="icon-045" xmlns="http://www.w3.org/2000/svg" xmlns:xlink="http://www.w3.org/1999/xlink" x="0px" y="0px"
	 width="2048px" height="2048px" viewBox="0 0 2048 2048" enable-background="new 0 0 2048 2048" xml:space="preserve">
<path d="M1024,255.835c-423.397,0-768,344.602-768,768c0,423.398,344.603,768,768,768c423.398,0,768-344.602,768-768
	C1792,600.437,1447.398,255.835,1024,255.835z M1536,831.835h-128v128h-64v-128h-128v-64h128v-128h64v128h128V831.835z
	 M1128.742,841.939c0,57.535-20.652,115.07-75.236,137.199c-41.309,38.355-41.309,60.485-41.309,76.713
	c0,39.832,41.309,57.534,81.141,82.614c78.188,75.237,95.891,115.069,95.891,193.259c0,97.366-118.021,196.208-277.348,196.208
	c-154.901,0-293.576-60.485-293.576-156.377c0-118.021,118.02-215.387,275.873-215.387c0,0,17.703,0,41.307,0
	c-23.604-17.703-41.307-42.783-41.307-60.485c0-17.703,0-39.832,17.703-56.06c-17.703,0-17.703,0-39.832,0
	c-115.069,0-191.783-82.614-191.783-197.685c0-100.316,116.545-199.159,255.219-199.159c57.535,0,253.744,0,253.744,0
	l-60.486,57.536h-57.535C1108.09,723.92,1128.742,778.504,1128.742,841.939z M911.881,1193.05
	c-97.367,0-194.734,60.485-194.734,138.675c0,79.664,79.664,135.723,194.734,135.723c141.625,0,196.209-56.059,196.209-135.723
	v-17.703c-14.752-60.486-54.584-79.664-115.07-120.972C970.891,1193.05,950.236,1193.05,911.881,1193.05z M894.178,682.612
	c-79.664,0-118.02,59.011-118.02,159.327c20.652,95.892,78.188,157.853,159.326,157.853c76.713,0,118.021-61.961,95.891-157.853
	C1012.197,763.751,950.236,682.612,894.178,682.612z"/>
</svg>
