<?xml version="1.0" encoding="utf-8"?>
<!-- Generator: Adobe Illustrator 15.1.0, SVG Export Plug-In . SVG Version: 6.00 Build 0)  -->
<!DOCTYPE svg PUBLIC "-//W3C//DTD SVG 1.1//EN" "http://www.w3.org/Graphics/SVG/1.1/DTD/svg11.dtd">
<svg version="1.1" id="icon-077" xmlns="http://www.w3.org/2000/svg" xmlns:xlink="http://www.w3.org/1999/xlink" x="0px" y="0px"
	 width="2048px" height="2048px" viewBox="0 0 2048 2048" enable-background="new 0 0 2048 2048" xml:space="preserve">
<path fill="#231F20" d="M1600,537.673L805.98,208.999c-13.904-5.479-142.117-52.434-242.932,40.686
	c-33.663,31.076-52.704,77.372-50.936,123.865L512,1548.815c0,18.83,11.535,35.76,29.09,42.65l802.217,264.865v-88.695
	l108.137-102.844H1600V537.673z M1314.695,681.119c-1.184-0.609-693.82-283.695-693.82-283.695
	c-9.131-3.892-16.713-17.736-17.07-27.371c-0.754-19.788,7.487-40.111,21.506-53.064c60.852-56.203,143.357-24.205,146.559-22.909
	c0.525,0.218,1.033,0.424,1.561,0.611l680.021,280.438L1314.695,681.119z M1343.307,1708.394V704.109l125.955-100.153l2.172,982.576
	L1343.307,1708.394z"/>
</svg>
