<?xml version="1.0" encoding="utf-8"?>
<!-- Generator: Adobe Illustrator 15.1.0, SVG Export Plug-In . SVG Version: 6.00 Build 0)  -->
<!DOCTYPE svg PUBLIC "-//W3C//DTD SVG 1.1//EN" "http://www.w3.org/Graphics/SVG/1.1/DTD/svg11.dtd">
<svg version="1.1" id="icon-032" xmlns="http://www.w3.org/2000/svg" xmlns:xlink="http://www.w3.org/1999/xlink" x="0px" y="0px"
	 width="2048px" height="2048px" viewBox="0 0 2048 2048" enable-background="new 0 0 2048 2048" xml:space="preserve">
<g>
	<path d="M1215.768,640.651c-317.66,0-575.167,257.486-575.167,575.111c0,317.628,257.507,575.11,575.167,575.11
		c317.654,0,575.16-257.482,575.16-575.11C1790.928,898.138,1533.422,640.651,1215.768,640.651z M1215.768,1726.97
		c-282.367,0-511.26-228.871-511.26-511.207c0-282.333,228.893-511.21,511.26-511.21c282.359,0,511.256,228.877,511.256,511.21
		C1727.023,1498.099,1498.127,1726.97,1215.768,1726.97z"/>
	<path d="M1215.764,755.579c-254.119,0-460.119,205.988-460.119,460.087c0,254.107,206,460.09,460.119,460.09
		c254.117,0,460.117-205.982,460.117-460.09C1675.881,961.567,1469.881,755.579,1215.764,755.579z M1270.803,1133.493
		l-54.818,54.827h-118.086c-1.662,8.88-2.541,18.038-2.541,27.399c0,9.369,0.879,18.538,2.545,27.432h172.9l-54.818,54.828h-95.684
		c26.557,39.673,71.768,65.798,123.092,65.798c28.031,0,54.24-7.796,76.59-21.331l69.865,71.848
		c-40.961,30.269-91.617,48.173-146.455,48.173c-107.414,0-198.777-68.658-232.65-164.487h-68.869v-54.828h56.332
		c-0.996-9.011-1.527-18.161-1.527-27.432c0-9.262,0.531-18.404,1.523-27.399h-56.328v-54.827h68.855
		c33.865-95.849,125.238-164.525,232.664-164.525c55.541,0,106.791,18.361,148.023,49.334l-70.949,70.99
		c-22.453-13.725-48.838-21.627-77.074-21.627c-51.332,0-96.561,26.134-123.113,65.828H1270.803z"/>
	<path d="M531.703,1245.828c-105.597-76.752-181.99-193.7-204.228-332.786C282.901,634.25,472.788,372.106,751.609,327.527
		c196.537-31.423,384.793,53.647,494.402,204.235c27.605,1.192,54.941,4.011,81.941,8.458
		c-116.621-197.728-346.02-314.231-586.43-275.792C427.847,314.58,214.222,609.491,264.368,923.133
		c28.143,176.018,133.383,320.523,275.764,404.588C535.695,1300.737,532.887,1273.417,531.703,1245.828z"/>
	<path d="M584.901,949.224c34.492-81.544,83.849-154.753,146.697-217.595c62.848-62.843,136.064-112.194,217.614-146.683
		c73.839-31.229,151.649-49.001,231.763-52.984c-100.75-116.751-257.838-180.185-421.31-154.048
		c-250.931,40.12-421.828,276.048-381.711,526.959c17.853,111.658,74.501,207.438,153.969,275.855
		C535.931,1100.705,553.7,1022.983,584.901,949.224z"/>
</g>
</svg>
