<?xml version="1.0" encoding="utf-8"?>
<!-- Generator: Adobe Illustrator 15.1.0, SVG Export Plug-In . SVG Version: 6.00 Build 0)  -->
<!DOCTYPE svg PUBLIC "-//W3C//DTD SVG 1.1//EN" "http://www.w3.org/Graphics/SVG/1.1/DTD/svg11.dtd">
<svg version="1.1" id="icon-050" xmlns="http://www.w3.org/2000/svg" xmlns:xlink="http://www.w3.org/1999/xlink" x="0px" y="0px"
	 width="2048px" height="2048px" viewBox="0 0 2048 2048" enable-background="new 0 0 2048 2048" xml:space="preserve">
<path d="M1216,639.835v-128h128v-256H704v256h128v128l0,0c-70.692,0-192,128-192,256v768c0,70.816,57.184,128,128,128h512
	c70.816,0,128-57.184,128-128v-768C1408,767.835,1286.691,639.835,1216,639.835z M1072.471,1381.325l-90.51,90.51l-90.51-90.51
	l-135.766-135.764l90.51-90.51l135.766,135.764l271.529-271.528l90.51,90.509L1072.471,1381.325z"/>
</svg>
