<?xml version="1.0" encoding="utf-8"?>
<!-- Generator: Adobe Illustrator 15.1.0, SVG Export Plug-In . SVG Version: 6.00 Build 0)  -->
<!DOCTYPE svg PUBLIC "-//W3C//DTD SVG 1.1//EN" "http://www.w3.org/Graphics/SVG/1.1/DTD/svg11.dtd">
<svg version="1.1" id="icon-075-s" xmlns="http://www.w3.org/2000/svg" xmlns:xlink="http://www.w3.org/1999/xlink" x="0px" y="0px"
	 width="2048px" height="2048px" viewBox="0 0 2048 2048" enable-background="new 0 0 2048 2048" xml:space="preserve">
<g>
	<ellipse cx="873.32" cy="851.858" rx="64" ry="85.333"/>
	<ellipse cx="1173.32" cy="851.858" rx="64" ry="85.333"/>
	<g>
		<g>
			<path d="M863.639,843.27c0.796,0,2.029-1.207,0.723-1.207C863.565,842.062,862.332,843.27,863.639,843.27L863.639,843.27z"/>
		</g>
	</g>
	<path d="M1024,512c-282.77,0-512,229.23-512,512s229.23,512,512,512c282.771,0,512-229.23,512-512S1306.771,512,1024,512z
		 M1024,1472c-247.422,0-448-200.575-448-448c0-247.423,200.579-448,448-448c247.424,0,448,200.577,448,448
		C1472,1271.425,1271.424,1472,1024,1472z"/>
	<path d="M1312.805,1109.086c-46.152,114.205-158.062,194.789-288.805,194.789c-130.744,0-242.654-80.584-288.805-194.789H691.96
		c48.108,137.007,178.594,235.244,332.04,235.244c153.445,0,283.932-98.237,332.039-235.244H1312.805z"/>
</g>
</svg>
