<?xml version="1.0" encoding="utf-8"?>
<!-- Generator: Adobe Illustrator 15.1.0, SVG Export Plug-In . SVG Version: 6.00 Build 0)  -->
<!DOCTYPE svg PUBLIC "-//W3C//DTD SVG 1.1//EN" "http://www.w3.org/Graphics/SVG/1.1/DTD/svg11.dtd">
<svg version="1.1" id="icon-065-s" xmlns="http://www.w3.org/2000/svg" xmlns:xlink="http://www.w3.org/1999/xlink" x="0px" y="0px"
	 width="2048px" height="2048px" viewBox="0 0 2048 2048" enable-background="new 0 0 2048 2048" xml:space="preserve">
<g>
	<polygon points="1056,927.834 1120,991.834 1280,831.835 1408,959.835 1408,639.835 1088,639.835 1216,767.835 	"/>
	<polygon points="928,991.835 992,927.835 832.418,768.253 960.418,640.253 640.418,640.253 639.582,967.253 768.418,832.253 	"/>
	<polygon points="992,1119.835 928,1055.835 768,1215.835 640,1087.835 640,1407.835 967,1408.671 832,1279.835 	"/>
	<polygon points="1280.418,1216.253 1120,1055.835 1056,1119.835 1216.418,1280.253 1088.418,1408.253 1408.418,1408.253 
		1408.418,1088.253 	"/>
</g>
</svg>
