<?xml version="1.0" encoding="utf-8"?>
<!-- Generator: Adobe Illustrator 15.1.0, SVG Export Plug-In . SVG Version: 6.00 Build 0)  -->
<!DOCTYPE svg PUBLIC "-//W3C//DTD SVG 1.1//EN" "http://www.w3.org/Graphics/SVG/1.1/DTD/svg11.dtd">
<svg version="1.1" id="icon-055-s" xmlns="http://www.w3.org/2000/svg" xmlns:xlink="http://www.w3.org/1999/xlink" x="0px" y="0px"
	 width="2048px" height="2048px" viewBox="0 0 2048 2048" enable-background="new 0 0 2048 2048" xml:space="preserve">
<path d="M1093.838,699.054c-36.857-15.898-68.711-1.423-68.711-3.564c0-2.21-2.951-33.161-5.162-56.739
	c-2.209-23.579,8.107-67.057-2.945-62.636c-44.953,27.267-78.107,108.321-78.107,108.321s-87.691-11.053-218.854,8.844
	C652.854,703.475,578.125,735.141,511,768.061V1536h104.031c9.322-29.967,20.797-77.32,20.289-125.745
	c-0.736-70.005,15.473-90.224,67.791-159.902c43.531-57.978,162.26-128.536,168.316-118.886
	c51.053,70.993,123.484,80.569,123.484,80.569s0,7.369,11.791,31.686c11.787,24.317,88.426,110.532,101.688,123.794
	c13.262,13.265,5.16,32.422,20.633,49.37c9.883,10.827,19.893,13.007,28.133,13.333c-5.141-15.564,1.844-48.22,1.844-48.22
	c2.275,16.049,17.139,44.732,21,48c25.043,19.096,51.879,4.438,65.449,0.151c14.002-4.42,20.632-23.578,22.107-38.318
	c1.471-14.737,32.421-56.737,39.052-64.109c6.632-7.365,4.421-19.155,0-30.209c-4.421-11.053-29.475-53.792-37.581-72.213
	c-8.107-18.423-26.523-93.582-30.211-112.006c-3.686-18.42-17.682-101.688-13.262-124.531c4.422-22.844,20.629-56.74,15.473-75.162
	c-5.156-18.421-27.998-46.421-42.736-59.684c-14.738-13.265-15.107-29.477-15.107-29.477c23.213,5.896,23.947,0,23.947,0
	c-26.529-2.945-47.896-57.475-47.896-57.475c20.633-22.106,36.846-60.426,37.58-101.689c0.734-41.266-8.105-72.95-14.736-73.688
	c-6.633-0.734-11.793,13.265-28.74,48.636c-13.399,27.966-37.693,47.33-48.502,55.111L1093.838,699.054z M980.6,948.156
	c11.691,1.672,27.744-35.936,60.152-31.749c25.889,3.346,30.611,26.816,33.947,38.511c3.347,11.69,11.162,24.982,11.162,24.982
	C1016.518,1024.182,980.6,948.156,980.6,948.156z"/>
</svg>
