<?xml version="1.0" encoding="utf-8"?>
<!-- Generator: Adobe Illustrator 15.1.0, SVG Export Plug-In . SVG Version: 6.00 Build 0)  -->
<!DOCTYPE svg PUBLIC "-//W3C//DTD SVG 1.1//EN" "http://www.w3.org/Graphics/SVG/1.1/DTD/svg11.dtd">
<svg version="1.1" id="icon-036-s" xmlns="http://www.w3.org/2000/svg" xmlns:xlink="http://www.w3.org/1999/xlink" x="0px" y="0px"
	 width="2048px" height="2048px" viewBox="0 0 2048 2048" enable-background="new 0 0 2048 2048" xml:space="preserve">
<path d="M1381.803,1260.195c-59.66-10.44-136.479-84.829-253.828-112.009v-24.435c24.92-34.428,45.479-81.112,66.512-134.69
	c14.818-37.702,12.273-69.845,12.273-115.613c0-33.809,6.375-88.061-2.02-117.883c-28.299-100.769-96.965-150.091-180.74-150.091
	c-83.85,0-158.311,49.453-186.559,150.392c-8.315,29.731-1.941,83.866-1.941,117.582c0,45.874-2.492,78.12,12.353,115.889
	c22.856,58.036,44.706,107.746,72.173,142.648v14.708c-121.16,25.827-199.773,102.862-260.568,113.502
	C538.78,1281.314,538.78,1372.36,538.78,1372.36L512,1471.835h1024l-26.781-101.674
	C1509.219,1370.161,1502.48,1281.314,1381.803,1260.195z"/>
</svg>
