<?xml version="1.0" encoding="utf-8"?>
<!-- Generator: Adobe Illustrator 15.1.0, SVG Export Plug-In . SVG Version: 6.00 Build 0)  -->
<!DOCTYPE svg PUBLIC "-//W3C//DTD SVG 1.1//EN" "http://www.w3.org/Graphics/SVG/1.1/DTD/svg11.dtd">
<svg version="1.1" id="icon-031" xmlns="http://www.w3.org/2000/svg" xmlns:xlink="http://www.w3.org/1999/xlink" x="0px" y="0px"
	 width="2048px" height="2048px" viewBox="0 0 2048 2048" enable-background="new 0 0 2048 2048" xml:space="preserve">
<g>
	<path d="M1682.787,642.119c-11.52-18.609-25.523-34.881-40.641-49.875c1.26,14.309,2.086,28.797,2.053,43.665
		c0.092,71.773-13.93,142.4-41.611,209.839c-27.717,67.562-63.605,123.882-106.729,167.417
		c-42.188,42.509-89.074,75.593-139.646,98.466c-48.039,21.545-104.729,36.414-178.631,46.797
		c-43.014,5.918-106.17,8.494-211.168,8.545H943.5l-60.437,289.014l-7.97,37.848l-15.93,75.615h-77.283H664.822l-17.727,96.025
		h314.709l7.975-49.252l76.24-364.588h100.32c94.67-0.068,158.758-2.229,198.193-7.627c61.338-8.607,111.656-20.986,152.623-39.379
		c40.332-18.234,77.461-44.818,111.008-78.635c35.512-35.832,63.752-81.729,86.195-136.462
		c22.945-55.848,34.572-114.105,34.502-173.555C1729.006,751.365,1714.104,692.08,1682.787,642.119z"/>
	<path d="M1175.928,323.446H708.125L467.17,1474.179h314.71l7.992-37.865l76.238-364.584h100.303
		c94.688-0.055,158.762-2.23,198.174-7.65c61.338-8.623,111.697-20.965,152.627-39.364c40.348-18.248,77.496-44.848,111.047-78.648
		c35.488-35.852,63.748-81.746,86.172-136.459c22.947-55.848,34.592-114.108,34.52-173.556
		c0.125-64.595-14.795-123.916-46.113-173.859c-30.521-49.369-74.65-86.841-127.967-108.225
		C1321.604,332.534,1255.947,323.573,1175.928,323.446z M966.141,592.264h116.916c3.314-0.037,6.572-0.057,9.756-0.057
		c54.717,0,93.84,4.052,106.566,7.112c1.816,0.43,3.076,0.847,3.797,1.225c12.49,4.715,19.039,10.078,24.658,17.925
		c4.498,6.678,8.35,16.99,8.424,35.564c-0.127,28.654-7.703,52.695-24.516,77.173c-16.738,23.649-37.922,40.21-68.391,51.782
		c-3.041,1.24-6.842,2.467-11.359,3.655c-31.621,8.275-98.717,14.863-192.27,14.863c-3.078,0-6.156,0-9.287,0h-8.318
		L966.141,592.264z"/>
</g>
</svg>
