<?xml version="1.0" encoding="utf-8"?>
<!-- Generator: Adobe Illustrator 15.1.0, SVG Export Plug-In . SVG Version: 6.00 Build 0)  -->
<!DOCTYPE svg PUBLIC "-//W3C//DTD SVG 1.1//EN" "http://www.w3.org/Graphics/SVG/1.1/DTD/svg11.dtd">
<svg version="1.1" id="icon-044-s" xmlns="http://www.w3.org/2000/svg" xmlns:xlink="http://www.w3.org/1999/xlink" x="0px" y="0px"
	 width="2048px" height="2048px" viewBox="0 0 2048 2048" enable-background="new 0 0 2048 2048" xml:space="preserve">
<path d="M1471.445,903.059c-8.061-117.92-105.998-211.115-225.918-211.115c-125.184,0-226.689,101.484-226.689,226.686
	c0,0.533-225,90.635-430.788-113.813c0,0-0.345,238.047,133.635,310.315c-154.15,24.181-282.872-39.249-282.872-39.249
	s126.628,285.922,514.656,285.922c287.275,0,395.383-174.518,432.189-265.211l232.9-70.758L1471.445,903.059z M1280,959.835
	c-35.346,0-64-28.653-64-64s28.654-64,64-64s64,28.653,64,64S1315.346,959.835,1280,959.835z"/>
</svg>
