<?xml version="1.0" encoding="utf-8"?>
<!-- Generator: Adobe Illustrator 15.1.0, SVG Export Plug-In . SVG Version: 6.00 Build 0)  -->
<!DOCTYPE svg PUBLIC "-//W3C//DTD SVG 1.1//EN" "http://www.w3.org/Graphics/SVG/1.1/DTD/svg11.dtd">
<svg version="1.1" id="icon-054" xmlns="http://www.w3.org/2000/svg" xmlns:xlink="http://www.w3.org/1999/xlink" x="0px" y="0px"
	 width="2048px" height="2048px" viewBox="0 0 2048 2048" enable-background="new 0 0 2048 2048" xml:space="preserve">
<path d="M1133.367,1576.647c24.33,8.851,208.423,75.033,432.713,13.826c140.216-38.251,186.429-74.873,221.488-137.031
	c0,0,79.668-55.771,81.262-94.014c1.598-38.24-27.088-62.146-58.955-74.903c-31.872-12.741-356.471-182.223-468.992-272.057
	c-66.884-53.4-83.427-171.529-170.16-245.144c-79.018-67.071-212.48-138.649-243.627-214.19
	c-17.705-42.957,11.154-211.929,9.568-254.965c-1.598-43.016,7.723-140.497-15.262-164.122
	c-22.988-23.616-24.588,28.681-42.109,71.711c-10.711,26.283-21.09,45.218-31.969,63.535c5.432,71.962-20.303,215.68-20.303,215.68
	c9.75-119.403,0.27-216.354,0.016-218.961c-3.709-35.663-11.1-89.613-22.639-100.097c-17.531-15.929-38.246-11.144-58.959,43.021
	c-20.721,54.19-97.201,224.69-156.16,288.425c-58.961,63.74-282.043,379.252-331.445,417.483
	C233.172,933.944,120.318,1021.37,0,1116.823V2048h841.051c20.715-55.299,36.104-103.425,39.84-132.438
	c14.336-111.566,188.816-338.095,188.816-338.095c-18.432-4.416-63.885-24.416-27.023-20.729
	C1079.548,1560.434,1109.037,1567.796,1133.367,1576.647z M1068.759,1127.282c-43.195-6.604-81.489-38.946-81.489-38.946
	c13.068-1.968,115.604-65.691,115.604-65.691C1133.232,1122.042,1068.759,1127.282,1068.759,1127.282z"/>
</svg>
