<?xml version="1.0" encoding="utf-8"?>
<!-- Generator: Adobe Illustrator 15.1.0, SVG Export Plug-In . SVG Version: 6.00 Build 0)  -->
<!DOCTYPE svg PUBLIC "-//W3C//DTD SVG 1.1//EN" "http://www.w3.org/Graphics/SVG/1.1/DTD/svg11.dtd">
<svg version="1.1" id="icon-051" xmlns="http://www.w3.org/2000/svg" xmlns:xlink="http://www.w3.org/1999/xlink" x="0px" y="0px"
	 width="2048px" height="2048px" viewBox="0 0 2048 2048" enable-background="new 0 0 2048 2048" xml:space="preserve">
<path fill-rule="evenodd" clip-rule="evenodd" fill="#231F20" d="M1596.559,1345.683V481.242L1152.74,195.15L638.35,406.884v487.756
	H405.537v383.284l232.818,0.195l-0.006,127.566l-127.763-63.881l-319.404,255.523l511.048,255.521l319.402-255.521v-319.404h191.643
	v319.404l319.404,255.521l255.523-383.283L1596.559,1345.683z M748.115,1381.896c0,0,3.183-39.605,67.441-39.67
	c64.026-0.064,76.803,39.67,76.803,39.67H748.115z M1076.582,988.225l-14.955,15.539c-16.076,16.093-32.771,26.988-51.188,38.51
	c-69.031,43.749-153.59,62.144-235.291,52.946l-9.201-1.158c-1.139,0-1.139,1.158-1.139,1.158c-0.572,0-0.572,0.578,0,1.166
	c8.619,9.729,18.398,18.387,28.756,25.889l1.162,0.535c0.557-0.535,2.297-0.535,2.297-2.32c0-4.018-1.74-8.566,0.559-12.057h39.135
	v1.742c1.138,14.42-0.58,28.803,1.138,43.129c8.642,6.92,16.698,13.799,25.312,22.994c16.094,16.164,25.315,40.896,20.72,65.008
	c-5.758,23.615-25.312,39.732-44.871,51.25c-1.161,0-2.299,1.119-2.299,2.281v28.75h-12.656h-14.396h-12.082h-1.715
	c-0.584-1.115,0-4.602-0.584-7.453c0-0.627-0.557-1.166-1.719-1.166c-12.656,2.859-25.313,7.504-38.551,12.643
	c-0.556,0.58-1.143,0-2.279,0c0,0-0.58-1.123-0.58-1.748c-0.579,0-0.579-0.537-0.579-0.537c-1.72-27.59,25.893-43.127,43.708-56.967
	v-93.176c-22.414-17.273-46.57-32.814-66.121-56.922c-29.939-62.15-115.055-60.99-155.91-114.497l-16.676-15.539
	c1.139,1.719-9.215-9.195-8.614-12.66h128.832c2.882-11.49,1.159-22.992,3.454-33.928c6.344-46.011,30.5-89.738,67.867-116.189
	c36.832-26.475,83.998-34.539,127.154-21.297c39.109,10.352,70.742,40.271,86.834,78.219c5.762,16.135,11.518,35.115,4.02,51.208
	h-0.557c-4.043-5.181-7.481-13.214-14.381-16.093c0,0.578-1.139,0.578-1.139,0.578c-0.602,1.138-0.602,1.138-0.602,1.721
	c-0.556,0-0.556,0.58-0.556,1.717l-3.46,14.955c0,1.143-0.58,1.143-1.716,1.143c-1.742-1.719-2.882-3.44-4.626-5.156v-0.58
	c-11.492-20.699-14.373-45.453-32.77-62.125c-22.432-25.314-57.525-34.51-90.324-29.916c-29.323,4.602-55.223,24.158-72.482,49.467
	c-16.094,25.871-25.873,55.207-24.152,85.7l368.154,0.577C1085.818,980.164,1083.498,983.047,1076.582,988.225z M1213.275,894.641
	h-191.643V575.236l191.643,127.762V894.641z"/>
</svg>
