<?xml version="1.0" encoding="utf-8"?>
<!-- Generator: Adobe Illustrator 15.1.0, SVG Export Plug-In . SVG Version: 6.00 Build 0)  -->
<!DOCTYPE svg PUBLIC "-//W3C//DTD SVG 1.1//EN" "http://www.w3.org/Graphics/SVG/1.1/DTD/svg11.dtd">
<svg version="1.1" id="icon-012" xmlns="http://www.w3.org/2000/svg" xmlns:xlink="http://www.w3.org/1999/xlink" x="0px" y="0px"
	 width="2048px" height="2048px" viewBox="0 0 2048 2048" enable-background="new 0 0 2048 2048" xml:space="preserve">
<path d="M1791.047,1599.835l-403.553-403.552c53.594-87.477,84.516-190.342,84.516-300.449c0-318.117-257.887-576.001-576-576.001
	C577.895,319.833,320,577.717,320,895.834c0,318.116,257.895,576.001,576.01,576.001c75.613,0,147.816-14.584,213.967-41.07
	l425.07,425.07L1791.047,1599.835z M513.242,895.53c0-211.567,171.507-383.073,383.072-383.073
	c211.563,0,383.069,171.506,383.069,383.073c0,211.565-171.506,383.069-383.069,383.069
	C684.749,1278.6,513.242,1107.096,513.242,895.53z"/>
</svg>
