<?xml version="1.0" encoding="utf-8"?>
<!-- Generator: Adobe Illustrator 15.1.0, SVG Export Plug-In . SVG Version: 6.00 Build 0)  -->
<!DOCTYPE svg PUBLIC "-//W3C//DTD SVG 1.1//EN" "http://www.w3.org/Graphics/SVG/1.1/DTD/svg11.dtd">
<svg version="1.1" id="icon-024" xmlns="http://www.w3.org/2000/svg" xmlns:xlink="http://www.w3.org/1999/xlink" x="0px" y="0px"
	 width="2048px" height="2048px" viewBox="0 0 2048 2048" enable-background="new 0 0 2048 2048" xml:space="preserve">
<g>
	<polygon points="966.24,1791.535 1088,1791.835 1152,1727.835 896,1727.835 	"/>
	<path d="M1375.576,465.462c-194.168-194.169-508.982-194.169-703.152,0c-194.172,194.17-194.17,508.985,0,703.153
		c61.195,61.195,116.793,104.8,159.576,175.22v128h384v-128c43.301-70.924,98-113.643,159.576-175.22
		C1569.746,974.443,1569.746,659.631,1375.576,465.462z M1272.162,1129.227c-54.4,57.953-147.178,147.027-184.162,214.609V895.835
		l-128.002,64L960,1343.836c-36.986-67.582-131.525-156.656-185.925-214.609c-144.696-154.149-156.761-409.12-12.066-563.27
		c144.696-154.149,379.29-154.149,523.981-0.001C1430.686,720.104,1416.854,975.076,1272.162,1129.227z"/>
	<rect x="832" y="1535.835" width="384" height="128"/>
</g>
</svg>
