<?xml version="1.0" encoding="utf-8"?>
<!-- Generator: Adobe Illustrator 15.1.0, SVG Export Plug-In . SVG Version: 6.00 Build 0)  -->
<!DOCTYPE svg PUBLIC "-//W3C//DTD SVG 1.1//EN" "http://www.w3.org/Graphics/SVG/1.1/DTD/svg11.dtd">
<svg version="1.1" id="icon-028" xmlns="http://www.w3.org/2000/svg" xmlns:xlink="http://www.w3.org/1999/xlink" x="0px" y="0px"
	 width="2048px" height="2048px" viewBox="0 0 2048 2048" enable-background="new 0 0 2048 2048" xml:space="preserve">
<g>
	<rect x="896" y="575.835" width="896" height="576"/>
	<path d="M576,767.834l-320,320v192v40.472v23.529h132.979c-0.023,1.017-0.039,2.036-0.039,3.059
		c0,73.421,59.52,132.941,132.941,132.941c73.423,0,132.943-59.521,132.943-132.941c0-1.022-0.016-2.042-0.039-3.059H832v-64.001
		v-640l-128,128H576z M468.705,1001.247l106.354-106.353L704,895.834v192H384L468.705,1001.247z"/>
	<path d="M1479.059,1213.786c-2.236,0-4.457,0.058-6.664,0.166L896,1215.835v128h450.152c-0.02,0.962-0.035,1.926-0.035,2.893
		c0,73.421,59.52,132.94,132.941,132.94c73.42,0,132.939-59.52,132.939-132.94c0-0.967-0.016-1.931-0.035-2.893H1728l64-128
		l-306.281-1.883C1483.512,1213.844,1481.291,1213.786,1479.059,1213.786z"/>
</g>
</svg>
