<?xml version="1.0" encoding="utf-8"?>
<!-- Generator: Adobe Illustrator 15.1.0, SVG Export Plug-In . SVG Version: 6.00 Build 0)  -->
<!DOCTYPE svg PUBLIC "-//W3C//DTD SVG 1.1//EN" "http://www.w3.org/Graphics/SVG/1.1/DTD/svg11.dtd">
<svg version="1.1" id="icon-035" xmlns="http://www.w3.org/2000/svg" xmlns:xlink="http://www.w3.org/1999/xlink" x="0px" y="0px"
	 width="2048px" height="2048px" viewBox="0 0 2048 2048" enable-background="new 0 0 2048 2048" xml:space="preserve">
<g>
	<path d="M1786.064,1113.125l133.936-89.29l-133.832-89.222c-40.656-353.383-320.92-633.835-674.189-674.81L1024,127.835
		l-87.727,131.59C580.67,299.087,298.323,581.296,258.469,936.855L128,1023.835l130.561,87.041
		c40.183,354.974,322.093,636.659,677.15,676.525L1024,1919.835l88.547-132.82
		C1465.266,1745.838,1745.078,1465.916,1786.064,1113.125z M1022.444,1669.349c-172.524,0-334.727-67.186-456.723-189.178
		c-121.996-121.995-189.183-284.196-189.183-456.728s67.187-334.734,189.183-456.728
		c121.997-121.994,284.195-189.177,456.723-189.177c172.524,0,334.726,67.184,456.722,189.177
		c121.996,121.993,189.182,284.196,189.182,456.728s-67.186,334.732-189.182,456.728
		C1357.17,1602.163,1194.967,1669.349,1022.444,1669.349z"/>
	<path d="M623.213,1422.187l551.535-247.368l247.312-551.48L870.635,870.705L623.213,1422.187z M1131.312,1131.384l-385.154,167.892
		l167.717-385.332L1131.312,1131.384z"/>
</g>
</svg>
