<?xml version="1.0" encoding="utf-8"?>
<!-- Generator: Adobe Illustrator 15.1.0, SVG Export Plug-In . SVG Version: 6.00 Build 0)  -->
<!DOCTYPE svg PUBLIC "-//W3C//DTD SVG 1.1//EN" "http://www.w3.org/Graphics/SVG/1.1/DTD/svg11.dtd">
<svg version="1.1" id="icon-052" xmlns="http://www.w3.org/2000/svg" xmlns:xlink="http://www.w3.org/1999/xlink" x="0px" y="0px"
	 width="2048px" height="2048px" viewBox="0 0 2048 2048" enable-background="new 0 0 2048 2048" xml:space="preserve">
<path d="M0,2048h1221.264c44.287-85.952,91.533-189.347,119.193-284.822c12.578-43.391,34.414-122.441,50.582-153.53
	c-67.646,4.58-101.119-8.559-101.119-8.559c78.102,1.861,142.119-13.54,142.119-13.54h0.012
	c49.07-12.626,140.807-33.362,184.494-80.263c55.225-59.255,51.188-90.235,51.188-90.235s36.359-37.709,32.318-80.802
	c-4.047-43.095-33.666-78.108-33.666-78.108s12.129-204.711-150.842-354.202c-141.844-130.114-303.02-159.218-370.846-177.899
	h-0.012c0,0-0.1-0.03-0.123-0.033c-8.02-2.209-14.699-4.281-19.912-6.351c-17.623-5.813-43.637-14.87-64.662-24.216
	c0,0,28.576,6.188,58.916,7.213c-7.469-56.447-46.539-347.423-68.586-426.858c-24.391-87.881-82.479-191.857-126.855-125.293
	c-54.7,82.065-65.442,254.372-67.549,319.729c32.752,48.909,41.662,83.352,41.662,83.352c-23.999-42.348-43.154-61.391-66.975-88.74
	c-0.846-0.934-1.68-1.863-2.575-2.847c-10.151-11.198-20.951-22.862-32.169-34.644c-0.157-0.152-0.245-0.246-0.245-0.246v-0.014
	c-93.606-98.311-216.292-205.152-238.064-125.339c-24.39,89.442,0.444,230.481,65.084,361.116
	C687.28,793.505,765.389,872.956,782.9,899.895c17.513,26.938,20.205,78.114,17.513,103.701c-1.5,14.168-11.665,35.33-23.185,51.649
	l0.014,0.011c0,0-3.51,6.058-11.644,14.167c-0.405,0.408-0.802,0.822-1.198,1.204c-11.812,11.408-32.58,26.376-65.621,34.761
	c0,0,24.715-15.426,40.621-32.861c-42.236-31.701-198.481-166.478-608.008-105.374C83.036,974.362,39.391,985.648,0,1000.396V2048z
	 M1336.418,1104.606c64.646,16.164,57.916,84.849,55.221,95.618c0,0-118.512,39.055-141.41-75.416
	C1250.229,1124.809,1271.773,1088.445,1336.418,1104.606z"/>
</svg>
