<?xml version="1.0" encoding="utf-8"?>
<!-- Generator: Adobe Illustrator 15.1.0, SVG Export Plug-In . SVG Version: 6.00 Build 0)  -->
<!DOCTYPE svg PUBLIC "-//W3C//DTD SVG 1.1//EN" "http://www.w3.org/Graphics/SVG/1.1/DTD/svg11.dtd">
<svg version="1.1" id="icon-032-s" xmlns="http://www.w3.org/2000/svg" xmlns:xlink="http://www.w3.org/1999/xlink" x="0px" y="0px"
	 width="2048px" height="2048px" viewBox="0 0 2048 2048" enable-background="new 0 0 2048 2048" xml:space="preserve">
<g>
	<path d="M1024.003,512.889c-282.311,0-511.161,228.833-511.161,511.111c0,282.281,228.851,511.11,511.161,511.11
		c282.304,0,511.155-228.829,511.155-511.11C1535.158,741.722,1306.307,512.889,1024.003,512.889z M1024.002,1414.325
		c-215.598,0-390.364-174.751-390.364-390.325c0-215.57,174.767-390.327,390.364-390.327c215.592,0,390.363,174.757,390.363,390.327
		C1414.365,1239.574,1239.594,1414.325,1024.002,1414.325z"/>
	<path d="M1023.998,679.023c-190.492,0-344.914,154.413-344.914,344.891c0,190.484,154.422,344.894,344.914,344.894
		s344.916-154.409,344.916-344.894C1368.914,833.437,1214.49,679.023,1023.998,679.023z M1072.914,950.887l-48.719,48.725H919.25
		c-1.478,7.893-2.258,16.031-2.258,24.352c0,8.326,0.78,16.474,2.262,24.379h153.66l-48.719,48.727H939.16
		c23.602,35.257,63.781,58.475,109.395,58.475c24.91,0,48.203-6.928,68.064-18.956l62.092,63.852
		c-36.402,26.899-81.422,42.812-130.156,42.812c-95.463,0-176.658-61.018-206.762-146.182h-61.205v-48.727h50.063
		c-0.886-8.009-1.357-16.142-1.357-24.379c0-8.231,0.472-16.357,1.354-24.352h-50.061v-48.725h61.193
		c30.097-85.184,111.301-146.217,206.773-146.217c49.359,0,94.906,16.317,131.549,43.844l-63.053,63.09
		c-19.955-12.197-43.402-19.221-68.496-19.221c-45.621,0-85.816,23.227-109.414,58.504H1072.914z"/>
</g>
</svg>
