<?xml version="1.0" encoding="utf-8"?>
<!-- Generator: Adobe Illustrator 15.1.0, SVG Export Plug-In . SVG Version: 6.00 Build 0)  -->
<!DOCTYPE svg PUBLIC "-//W3C//DTD SVG 1.1//EN" "http://www.w3.org/Graphics/SVG/1.1/DTD/svg11.dtd">
<svg version="1.1" id="icon-056-s" xmlns="http://www.w3.org/2000/svg" xmlns:xlink="http://www.w3.org/1999/xlink" x="0px" y="0px"
	 width="2048px" height="2048px" viewBox="0 0 2048 2048" enable-background="new 0 0 2048 2048" xml:space="preserve">
<path d="M511,965.562v569.637h406.113c11.092-4.993,17.631-7.952,17.631-7.952s103.393-145.163,115.924-170.228
	c12.532-25.065,79.369-115.923,90.858-130.543c7.194-9.156,11.31-22.631,22.44-31.197l18.558-8.69
	c2.428,0.083,4.983,0.626,7.671,1.682c11.645,2.386,19.631,3.269,19.631,3.269c16.385,1.33,42.178,0.839,70.607-8.936
	c39.566-13.604,40.119-31.764,40.119-31.764s-7.307-12.532-36.553-19.84c-29.24-7.312-73-106.999-73-106.999
	s55,31.517,84.057,46.855c14.606,7.711,40.729,17.758,40.729,17.758s21.933,10.444,19.842,30.284
	c-2.094,19.845-19.842,126.367-19.842,126.367s99.212-49.086,135.762-183.804c36.554-134.725-57.434-205.738-57.434-205.738
	s0.03-0.054,0.084-0.148c0,0,1.803-224.575-308.174-249.451c0,0-59.656-5.79-92.023-37.124c0,0-16.27,33.646-10,42
	c0,0-76.496-14.847-112-42c0,0,6.686,55.868,14,59c0,0-39.539-9.397-74,0c-34.465,9.397-23.619,59.578-65.395,63.759
	c0,0,7.312,9.401,28.195,8.357c0,0-72.061,33.422-90.857,71.019c-18.799,37.591-49.088,100.259-66.844,113.83
	C621.43,896.953,550.424,939.859,511,965.562z M1087,831.835c0-35.347,28.654-64,64-64c35.347,0,64,28.653,64,64s-28.653,64-64,64
	C1115.654,895.835,1087,867.182,1087,831.835z"/>
</svg>
