<?xml version="1.0" encoding="utf-8"?>
<!-- Generator: Adobe Illustrator 15.1.0, SVG Export Plug-In . SVG Version: 6.00 Build 0)  -->
<!DOCTYPE svg PUBLIC "-//W3C//DTD SVG 1.1//EN" "http://www.w3.org/Graphics/SVG/1.1/DTD/svg11.dtd">
<svg version="1.1" id="icon-035-s" xmlns="http://www.w3.org/2000/svg" xmlns:xlink="http://www.w3.org/1999/xlink" x="0px" y="0px"
	 width="2048px" height="2048px" viewBox="0 0 2048 2048" enable-background="new 0 0 2048 2048" xml:space="preserve">
<g>
	<path d="M1462.625,1115.419L1600,1023.835l-137.375-91.583c-36.133-173.934-173.109-310.91-347.041-347.042L1024,447.835
		L932.416,585.21c-173.934,36.131-310.91,173.108-347.041,347.042L448,1023.835l137.375,91.584
		c36.131,173.933,173.107,310.909,347.041,347.041L1024,1599.835l91.584-137.376
		C1289.516,1426.328,1426.492,1289.352,1462.625,1115.419z M1024,1343.835c-176.731,0-320-143.27-320-320
		c0-176.731,143.269-320,320-320c176.73,0,320,143.269,320,320C1344,1200.565,1200.73,1343.835,1024,1343.835z"/>
	<polygon points="832,1215.835 1088,1087.835 1216,831.835 960,959.835 	"/>
</g>
</svg>
