<?xml version="1.0" encoding="utf-8"?>
<!-- Generator: Adobe Illustrator 15.1.0, SVG Export Plug-In . SVG Version: 6.00 Build 0)  -->
<!DOCTYPE svg PUBLIC "-//W3C//DTD SVG 1.1//EN" "http://www.w3.org/Graphics/SVG/1.1/DTD/svg11.dtd">
<svg version="1.1" id="icon-037" xmlns="http://www.w3.org/2000/svg" xmlns:xlink="http://www.w3.org/1999/xlink" x="0px" y="0px"
	 width="2048px" height="2048px" viewBox="0 0 2048 2048" enable-background="new 0 0 2048 2048" xml:space="preserve">
<g>
	<polygon points="1895,1061.606 1547.01,1061.606 1439.479,730.647 1331.941,1061.606 983.951,1061.604 1265.48,1266.148 
		1157.945,1597.106 1439.479,1392.564 1721.006,1597.106 1613.471,1266.148 	"/>
	<path d="M923.197,1013.656c76.906-59.484,76.996-199.326,76.996-274.503s-35.062-240.259-266.145-240.259
		c-120.283,0-239.407,63.141-239.407,243.565c0,0,7.52,80.665,7.52,140.805c0,60.141,0,45.106,0,105.248
		c0,60.141,60.141,120.282,120.28,180.424c-180.421,0-205.521,71.208-315.742,120.282
		c-150.353,66.94-150.353,192.403-150.353,192.403L153,1597.106h878.571l94.133-313.775c0,0-132.889-87.238-193.062-135.07
		C872.471,1100.431,887.574,1037.467,923.197,1013.656z"/>
</g>
</svg>
