<?xml version="1.0" encoding="utf-8"?>
<!-- Generator: Adobe Illustrator 15.1.0, SVG Export Plug-In . SVG Version: 6.00 Build 0)  -->
<!DOCTYPE svg PUBLIC "-//W3C//DTD SVG 1.1//EN" "http://www.w3.org/Graphics/SVG/1.1/DTD/svg11.dtd">
<svg version="1.1" id="icon-036" xmlns="http://www.w3.org/2000/svg" xmlns:xlink="http://www.w3.org/1999/xlink" x="0px" y="0px"
	 width="2048px" height="2048px" viewBox="0 0 2048 2048" enable-background="new 0 0 2048 2048" xml:space="preserve">
<path d="M1649.456,1421.919c-104.288-18.251-238.571-148.285-443.703-195.798v-42.713c43.562-60.181,79.499-141.787,116.266-235.445
	c25.902-65.905,21.454-122.091,21.454-202.097c0-59.1,11.145-153.934-3.53-206.065C1290.475,363.653,1170.444,277.435,1024,277.435
	c-146.572,0-276.734,86.446-326.113,262.892c-14.535,51.972-3.394,146.602-3.394,205.54c0,80.189-4.356,136.558,21.594,202.579
	c39.953,101.449,78.147,188.345,126.161,249.355v25.71c-211.795,45.147-349.214,179.81-455.486,198.408
	c-210.949,36.917-210.949,196.069-210.949,196.069l-46.813,173.886H1919l-46.814-177.73
	C1872.186,1614.144,1860.406,1458.836,1649.456,1421.919z"/>
</svg>
