<?xml version="1.0" encoding="utf-8"?>
<!-- Generator: Adobe Illustrator 15.1.0, SVG Export Plug-In . SVG Version: 6.00 Build 0)  -->
<!DOCTYPE svg PUBLIC "-//W3C//DTD SVG 1.1//EN" "http://www.w3.org/Graphics/SVG/1.1/DTD/svg11.dtd">
<svg version="1.1" id="icon-030" xmlns="http://www.w3.org/2000/svg" xmlns:xlink="http://www.w3.org/1999/xlink" x="0px" y="0px"
	 width="2048px" height="2048px" viewBox="0 0 2048 2048" enable-background="new 0 0 2048 2048" xml:space="preserve">
<g>
	<path d="M524.47,1293.938c-22.563-11.794-47.059-19.756-72.41-23.364L325.068,956.262c24.018-30.856,39.617-67.602,45.128-106.314
		l831.819-336.077c30.852,24.02,67.602,39.618,106.314,45.128l126.988,314.314c-4.596,5.904-8.879,12.027-12.846,18.337h140.65
		L1381.238,441.46c-57.162,23.095-122.227-4.521-145.32-61.684l-983.26,397.263c23.095,57.162-4.524,122.225-61.685,145.318
		l188.179,465.755c57.16-23.095,122.223,4.523,145.317,61.685h0V1293.938z"/>
	<path d="M1752.395,947.465H691.914c0,61.649-49.98,111.629-111.629,111.629v502.333c61.648,0,111.629,49.979,111.629,111.63
		h1060.48c0-61.651,49.979-111.63,111.631-111.63v-502.333C1802.373,1059.094,1752.395,1009.114,1752.395,947.465z
		 M1752.395,1479.76c-33.83,19.61-62.059,47.838-81.668,81.667H773.58c-19.611-33.829-47.837-62.057-81.666-81.667v-338.999
		c33.829-19.611,62.055-47.839,81.666-81.667h897.146c19.609,33.828,47.838,62.056,81.668,81.667V1479.76z"/>
	<path d="M1640.873,1114.908H803.436c-15.851,21.078-34.629,39.855-55.706,55.708v279.289
		c21.079,15.853,39.853,34.623,55.706,55.707h837.438c15.852-21.081,34.627-39.855,55.707-55.707v-279.289
		C1675.498,1154.761,1656.727,1135.989,1640.873,1114.908z"/>
	<path d="M524.47,1003.279h55.815c30.775,0,55.814-25.039,55.814-55.814v-55.815h722.859c4.047-8.583,8.525-16.968,13.428-25.108
		l-104.623-258.953c-25.488-6.801-49.922-17.175-72.521-30.783L418.785,890.514c-6.801,25.482-17.178,49.926-30.783,72.521
		l104.624,258.953c10.824,2.889,21.457,6.429,31.843,10.579V1003.279z"/>
</g>
</svg>
