<?xml version="1.0" encoding="utf-8"?>
<!-- Generator: Adobe Illustrator 15.1.0, SVG Export Plug-In . SVG Version: 6.00 Build 0)  -->
<!DOCTYPE svg PUBLIC "-//W3C//DTD SVG 1.1//EN" "http://www.w3.org/Graphics/SVG/1.1/DTD/svg11.dtd">
<svg version="1.1" id="icon-084" xmlns="http://www.w3.org/2000/svg" xmlns:xlink="http://www.w3.org/1999/xlink" x="0px" y="0px"
	 width="2048px" height="2048px" viewBox="0 0 2048 2048" enable-background="new 0 0 2048 2048" xml:space="preserve">
<g>
	<path fill="#231F20" d="M1157.826,537.578c0-28.011,17.629-50.307,52.91-66.914c-33.213-36.302-85.078-54.465-155.615-54.465
		c-48.774,0-87.678,10.893-116.709,32.679c-29.057,21.786-43.572,51.352-43.572,88.7c0,36.326,11.914,64.58,35.792,84.809
		c23.853,20.229,86.608,53.688,188.292,100.371c69.492,32.168,118.777,59.133,147.834,80.919
		c29.031,21.786,50.816,48.241,65.357,79.363c9.336,20.765,14.006,43.571,14.006,68.469c0,76.787-45.129,149.391-135.385,217.859
		c38.369,32.169,64.578,61.735,78.584,88.701c14.006,26.988,21.008,59.132,21.008,96.479c0,73.649-26.99,133.052-80.918,178.179
		c-53.955,45.128-125.027,67.692-213.191,67.692c-91.301,0-166.506-22.056-225.639-66.135
		c-59.135-44.107-88.701-99.862-88.701-167.285c0-38.37,9.58-68.982,28.789-91.812c19.184-22.807,44.86-34.236,77.028-34.236
		c24.899,0,46.417,8.826,64.581,26.455c18.137,17.652,27.232,38.392,27.232,62.245c0,31.122-18.164,56.557-54.467,76.252
		c-9.336,5.178-14.004,10.356-14.004,15.562c0,13.47,11.914,27.475,35.791,42.013c43.572,25.921,90.768,38.904,141.607,38.904
		c51.865,0,93.879-12.448,126.047-37.347c32.145-24.899,48.242-57.577,48.242-98.035c0-31.122-8.561-56.531-25.676-76.252
		c-17.117-19.694-48.51-40.971-94.148-63.801l-121.379-59.135c-72.627-35.257-122.934-64.312-150.943-87.143
		c-51.889-42.526-77.807-91.812-77.807-147.833c0-75.715,45.127-147.833,135.383-216.303c-55-51.863-82.477-106.328-82.477-163.395
		c0-70.537,25.41-127.069,76.252-169.619c50.818-42.526,118.777-63.801,203.852-63.801c80.922,0,148.346,18.941,202.299,56.799
		c53.932,37.881,80.92,84.299,80.92,139.274c0,29.056-8.559,52.666-25.676,70.804c-17.117,18.164-39.17,27.232-66.135,27.232
		c-22.832,0-41.773-7.002-56.799-21.008C1165.342,578.815,1157.826,560.409,1157.826,537.578z M1056.68,833.243
		c-57.068-25.919-101.686-47.705-133.828-65.357l-9.338,9.337c-46.684,46.684-70.025,89.234-70.025,127.603
		c0,29.056,11.403,53.955,34.234,74.694c22.807,20.766,67.936,47.22,135.385,79.364c37.348,17.652,78.318,38.901,122.936,63.801
		c54.975-48.752,82.473-95.945,82.473-141.608c0-29.031-11.428-53.93-34.234-74.694
		C1161.451,885.641,1118.924,861.254,1056.68,833.243z"/>
</g>
</svg>
