<?xml version="1.0" encoding="utf-8"?>
<!-- Generator: Adobe Illustrator 15.1.0, SVG Export Plug-In . SVG Version: 6.00 Build 0)  -->
<!DOCTYPE svg PUBLIC "-//W3C//DTD SVG 1.1//EN" "http://www.w3.org/Graphics/SVG/1.1/DTD/svg11.dtd">
<svg version="1.1" id="icon-073-s" xmlns="http://www.w3.org/2000/svg" xmlns:xlink="http://www.w3.org/1999/xlink" x="0px" y="0px"
	 width="2048px" height="2048px" viewBox="0 0 2048 2048" enable-background="new 0 0 2048 2048" xml:space="preserve">
<path d="M1536.043,512.441c-175.895,21.531-346.871,60.102-512.133,129.233l0.094-0.114
	C858.742,572.429,687.895,534.007,512,512.476v767.97c174.561,17.944,346.606,63.548,512.04,127.25
	c165.48-63.606,337.488-109.189,512.043-127.108L1536.043,512.441z M960,960.068v27.865v56.216
	c-22.244-7.328-47.049-15.111-73.735-22.866c-88.076-25.599-171.61-43.662-247.229-53.645V706.832
	c82.416,10.135,172.932,29.485,270.564,57.91c17.707,5.156,34.549,10.299,50.4,15.314V960.068z M1408.348,1150.98
	c-75.518,9.992-158.914,28.036-246.84,53.591c-26.596,7.73-51.322,15.486-73.508,22.793v-84.078
	c15.783-4.992,32.549-10.111,50.172-15.242c97.48-28.381,187.865-47.715,270.176-57.863V1150.98z M1408.348,969.572
	c-75.518,9.992-158.914,28.036-246.84,53.591c-26.596,7.73-51.322,15.486-73.508,22.793v-84.078
	c15.783-4.992,32.549-10.111,50.172-15.242c97.48-28.381,187.865-47.716,270.176-57.863V969.572z M1408.348,787.936
	c-75.518,9.993-158.914,28.037-246.84,53.592c-26.596,7.729-51.322,15.485-73.508,22.792v-84.077
	c15.783-4.993,32.549-10.112,50.172-15.243c97.48-28.381,187.865-47.716,270.176-57.863V787.936z"/>
</svg>
