<?xml version="1.0" encoding="utf-8"?>
<!-- Generator: Adobe Illustrator 15.1.0, SVG Export Plug-In . SVG Version: 6.00 Build 0)  -->
<!DOCTYPE svg PUBLIC "-//W3C//DTD SVG 1.1//EN" "http://www.w3.org/Graphics/SVG/1.1/DTD/svg11.dtd">
<svg version="1.1" id="icon-056" xmlns="http://www.w3.org/2000/svg" xmlns:xlink="http://www.w3.org/1999/xlink" x="0px" y="0px"
	 width="2048px" height="2048px" viewBox="0 0 2048 2048" enable-background="new 0 0 2048 2048" xml:space="preserve">
<path d="M1920.594,1100.526c73.107-269.45-114.867-411.476-114.867-411.476s0.061-0.107,0.167-0.299
	c-17.132-13.313-56.655-39.486-82.424-45.93c0,0,48.065-1.359,93.054,22.537c11.166-23.742,29.479-74.67-10.797-126.697
	c-50.129-64.756-173.359-327.93-616.18-348.813c0,0-108.633,2.094-173.367-60.574c0,0-12.539,37.597,0,54.305
	c0,0-116.984,10.451-187.992-43.854c0,0,22.977,58.48,37.605,64.744c0,0-77.283-2.088-146.203,16.707
	c-68.93,18.796-125.33,131.582-208.879,139.944c0,0,14.625,18.802,56.393,16.714c0,0-144.125,66.844-181.717,142.036
	c-37.6,75.183-98.176,200.519-133.688,227.66C220.357,771.51,78.346,857.322-0.5,908.729V2048h812.227
	c22.184-9.985,35.262-15.903,35.262-15.903s206.783-290.325,231.849-340.455c25.063-50.131,158.738-231.846,181.716-261.087
	c14.389-18.312,22.62-45.262,44.881-62.394c-17.84-13.969-57.131-51.274-57.131-51.274c23.512,13.708,75.312,29.467,94.246,33.894
	c4.855,0.166,9.967,1.253,15.342,3.363c23.287,4.772,39.261,6.538,39.261,6.538c32.771,2.66,84.428,1.885,141.214-17.871
	c96.072-33.415,131.587-127.411,131.587-127.411s-14.614-25.064-73.106-39.679c-58.48-14.627-85.633-114.874-85.633-114.874
	s45.948,27.141,56.398,58.469c10.445,31.34,81.457,35.516,81.457,35.516s43.867,20.89,39.686,60.568
	c-4.188,39.689-39.686,252.734-39.686,252.734S1847.494,1369.963,1920.594,1100.526z M1300.232,565.815
	c0,56.523-45.818,102.346-102.334,102.346c-56.523,0-102.341-45.823-102.341-102.346c0-56.512,45.817-102.335,102.341-102.335
	C1254.414,463.479,1300.232,509.303,1300.232,565.815z"/>
</svg>
