<?xml version="1.0" encoding="utf-8"?>
<!-- Generator: Adobe Illustrator 15.1.0, SVG Export Plug-In . SVG Version: 6.00 Build 0)  -->
<!DOCTYPE svg PUBLIC "-//W3C//DTD SVG 1.1//EN" "http://www.w3.org/Graphics/SVG/1.1/DTD/svg11.dtd">
<svg version="1.1" id="icon-054-s" xmlns="http://www.w3.org/2000/svg" xmlns:xlink="http://www.w3.org/1999/xlink" x="0px" y="0px"
	 width="2048px" height="2048px" viewBox="0 0 2048 2048" enable-background="new 0 0 2048 2048" xml:space="preserve">
<path d="M1077.684,1300.323c12.164,4.425,104.211,37.517,216.357,6.913c70.107-19.125,93.213-37.437,110.743-68.516
	c0,0,39.835-27.886,40.632-47.007c0.799-19.12-13.545-31.073-29.479-37.452c-15.936-6.37-178.234-91.111-234.496-136.027
	c-33.441-26.7-41.713-85.765-85.08-122.572c-39.508-33.535-84.787-67.893-100.361-105.663c-8.852-21.478,1.793-100.481,1-122
	c-0.799-21.509-13.807-77.163-25.299-88.976c-11.494-11.808-13.939,6.46-22.701,27.976c-5.355,13.142-24.488,147.487-24.488,147.487
	c4.875-59.701,0.135-108.177,0.008-109.48c-1.855-17.832-5.551-44.807-11.32-50.049c-8.766-7.964-19.123-5.572-29.479,21.511
	c-10.361,27.095-48.602,112.345-78.08,144.212c-29.48,31.871-141.021,189.627-165.723,208.742
	c-12.332,9.55-68.758,53.263-128.918,100.989V1536h420.525c10.357-27.65,18.053-51.713,19.92-66.22
	c7.168-55.783,94.408-169.048,94.408-169.048C1036.639,1298.525,1065.52,1295.897,1077.684,1300.323z M1043.361,1084.982
	c-32.07-4.903-60.502-28.915-60.502-28.915c9.703-1.462,85.831-48.775,85.831-48.775
	C1091.231,1081.092,1043.361,1084.982,1043.361,1084.982z"/>
</svg>
