<?xml version="1.0" encoding="utf-8"?>
<!-- Generator: Adobe Illustrator 15.1.0, SVG Export Plug-In . SVG Version: 6.00 Build 0)  -->
<!DOCTYPE svg PUBLIC "-//W3C//DTD SVG 1.1//EN" "http://www.w3.org/Graphics/SVG/1.1/DTD/svg11.dtd">
<svg version="1.1" id="icon-065" xmlns="http://www.w3.org/2000/svg" xmlns:xlink="http://www.w3.org/1999/xlink" x="0px" y="0px"
	 width="2048px" height="2048px" viewBox="0 0 2048 2048" enable-background="new 0 0 2048 2048" xml:space="preserve">
<g>
	<polygon points="902.465,964.35 966.467,900.349 768,696.835 960,511.835 512.835,511.835 512,959.835 704,760.835 	"/>
	<polygon points="965.302,1146.156 901.302,1082.157 704,1279.835 512,1087.835 512,1534.999 960,1535.835 768,1343.835 	"/>
	<polygon points="1088,511.835 1280,703.835 1082.375,901.191 1146.375,965.191 1344,767.835 1536,959.835 1536,511.835 	"/>
	<polygon points="1247.582,1183.417 1146.619,1082.234 1082.619,1146.234 1183.582,1247.417 1280,1343.835 1088,1535.835 
		1536,1535.835 1536,1087.835 1344,1279.835 	"/>
</g>
</svg>
