<?xml version="1.0" encoding="utf-8"?>
<!-- Generator: Adobe Illustrator 15.1.0, SVG Export Plug-In . SVG Version: 6.00 Build 0)  -->
<!DOCTYPE svg PUBLIC "-//W3C//DTD SVG 1.1//EN" "http://www.w3.org/Graphics/SVG/1.1/DTD/svg11.dtd">
<svg version="1.1" id="icon-037-s" xmlns="http://www.w3.org/2000/svg" xmlns:xlink="http://www.w3.org/1999/xlink" x="0px" y="0px"
	 width="2048px" height="2048px" viewBox="0 0 2048 2048" enable-background="new 0 0 2048 2048" xml:space="preserve">
<g>
	<polygon points="1472,1471.835 1344,1407.835 1216,1471.835 1264,1327.835 1152,1215.835 1280,1215.835 1344,1087.835 
		1408,1215.835 1536,1215.835 1424,1327.835 	"/>
	<path d="M1135.961,999.163c62.305-48.189,62.377-161.479,62.377-222.384c0-60.902-28.406-194.641-215.612-194.641
		c-97.444,0-193.95,51.152-193.95,197.319c0,0,6.092,65.349,6.092,114.07c0,48.723,0,36.542,0,85.265
		c0,48.722,48.721,97.444,97.442,146.167c-146.165,0-166.499,57.688-255.792,97.444
		c-121.806,54.231-121.806,155.873-121.806,155.873L512,1471.835h576l64-128l-128-192l192,0.001c0,0-23.639-4.874-72.389-43.625
		C1094.865,1069.462,1107.102,1018.453,1135.961,999.163z"/>
</g>
</svg>
