<?xml version="1.0" encoding="utf-8"?>
<!-- Generator: Adobe Illustrator 15.1.0, SVG Export Plug-In . SVG Version: 6.00 Build 0)  -->
<!DOCTYPE svg PUBLIC "-//W3C//DTD SVG 1.1//EN" "http://www.w3.org/Graphics/SVG/1.1/DTD/svg11.dtd">
<svg version="1.1" id="icon-040" xmlns="http://www.w3.org/2000/svg" xmlns:xlink="http://www.w3.org/1999/xlink" x="0px" y="0px"
	 width="2048px" height="2048px" viewBox="0 0 2048 2048" enable-background="new 0 0 2048 2048" xml:space="preserve">
<path d="M1792,1407.835h-128v-64h128V411.037c0-61.999-29.23-91.202-91.203-91.202H347.201c-62.024,0-91.201,29.203-91.201,91.202
	l0,932.798h128v64h-128l-192,256c0,0-7.717,128,53.771,128c71.045,0,1747.822,0,1802.23,0c58.729,0,64-128,64-128L1792,1407.835z
	 M384,447.834l1280-0.518v768l-1280,0.518V447.834z M768,1663.835l128-128h256l128,128H768z M1472,1407.835H576v-64h896V1407.835z"
	/>
</svg>
