<?xml version="1.0" encoding="utf-8"?>
<!-- Generator: Adobe Illustrator 15.1.0, SVG Export Plug-In . SVG Version: 6.00 Build 0)  -->
<!DOCTYPE svg PUBLIC "-//W3C//DTD SVG 1.1//EN" "http://www.w3.org/Graphics/SVG/1.1/DTD/svg11.dtd">
<svg version="1.1" id="icon-074-s" xmlns="http://www.w3.org/2000/svg" xmlns:xlink="http://www.w3.org/1999/xlink" x="0px" y="0px"
	 width="2048px" height="2048px" viewBox="0 0 2048 2048" enable-background="new 0 0 2048 2048" xml:space="preserve">
<path d="M1536,1152V896h-150.797c-4.488-12.598-9.613-24.892-15.342-36.842l106.686-106.688l-181.02-181.019l-106.92,106.92
	c-11.879-5.657-24.092-10.724-36.607-15.155V512H896v151.217c-12.674,4.488-25.039,9.627-37.061,15.37L753.137,572.786
	L572.118,753.805l105.806,105.807c-5.643,11.809-10.695,23.949-15.127,36.389H512v256h150.327
	c4.488,12.744,9.635,25.177,15.391,37.264l-106.265,106.265l181.019,181.02l106.031-106.031
	c12.158,5.828,24.672,11.035,37.498,15.578V1536h256v-149.905c12.668-4.486,25.029-9.622,37.045-15.363l107.15,107.15l181.02-181.02
	l-107.146-107.146c5.842-12.229,11.061-24.812,15.604-37.716H1536z M1024,1197.333c-95.729,0-173.334-77.604-173.334-173.333
	c0-95.729,77.605-173.334,173.334-173.334s173.334,77.605,173.334,173.334C1197.334,1119.729,1119.729,1197.333,1024,1197.333z"/>
</svg>
